<svg width="36" height="36" viewBox="0 0 36 36" fill="none" xmlns="http://www.w3.org/2000/svg">
<circle cx="18" cy="18" r="18" fill="#EFEFEF"/>
<path d="M28 13.535V23C28 23.7652 27.7077 24.5015 27.1827 25.0583C26.6578 25.615 25.9399 25.9501 25.176 25.995L25 26H11C10.2348 26.0001 9.49849 25.7077 8.94174 25.1828C8.38499 24.6578 8.04989 23.9399 8.005 23.176L8 23V13.535L17.445 19.832L17.561 19.898C17.6977 19.9648 17.8478 19.9995 18 19.9995C18.1522 19.9995 18.3023 19.9648 18.439 19.898L18.555 19.832L28 13.535Z" fill="#525252"/>
<path d="M25 10C26.08 10 27.027 10.57 27.555 11.427L18 17.797L8.44501 11.427C8.6958 11.0198 9.0403 10.6785 9.44978 10.4315C9.85926 10.1845 10.3219 10.0389 10.799 10.007L11 10H25Z" fill="#525252"/>
</svg>
