<svg width="36" height="36" viewBox="0 0 36 36" fill="none" xmlns="http://www.w3.org/2000/svg">
<circle cx="18" cy="18" r="18" fill="#EFEFEF"/>
<path d="M22.9982 9.49963C22.9982 9.36704 22.9455 9.23988 22.8518 9.14612C22.758 9.05236 22.6309 8.99969 22.4983 8.99969H19.9985C18.7398 8.93698 17.5074 9.37504 16.5706 10.2181C15.6338 11.0612 15.0688 12.2408 14.9991 13.4992V16.1989H12.4993C12.3667 16.1989 12.2396 16.2516 12.1458 16.3453C12.0521 16.4391 11.9994 16.5663 11.9994 16.6989V19.2986C11.9994 19.4312 12.0521 19.5583 12.1458 19.6521C12.2396 19.7459 12.3667 19.7985 12.4993 19.7985H14.9991V26.4978C14.9991 26.6304 15.0517 26.7576 15.1455 26.8513C15.2393 26.9451 15.3664 26.9978 15.499 26.9978H18.4987C18.6313 26.9978 18.7585 26.9451 18.8522 26.8513C18.946 26.7576 18.9986 26.6304 18.9986 26.4978V19.7985H21.6184C21.7295 19.8001 21.8381 19.7646 21.9268 19.6976C22.0155 19.6306 22.0794 19.5359 22.1083 19.4286L22.8282 16.8289C22.8481 16.755 22.8508 16.6775 22.836 16.6025C22.8213 16.5274 22.7895 16.4567 22.7432 16.3959C22.6968 16.335 22.6371 16.2856 22.5686 16.2515C22.5002 16.2173 22.4248 16.1993 22.3483 16.1989H18.9986V13.4992C19.0235 13.2517 19.1397 13.0224 19.3246 12.856C19.5095 12.6896 19.7498 12.5981 19.9985 12.5993H22.4983C22.6309 12.5993 22.758 12.5466 22.8518 12.4529C22.9455 12.3591 22.9982 12.2319 22.9982 12.0994V9.49963Z" fill="#525252"/>
</svg>
