<svg width="36" height="36" viewBox="0 0 36 36" fill="none" xmlns="http://www.w3.org/2000/svg">
<circle cx="18" cy="18" r="18" fill="#EFEFEF"/>
<path d="M19.028 8C20.153 8.003 20.724 8.009 21.217 8.023L21.411 8.03C21.635 8.038 21.856 8.048 22.123 8.06C23.187 8.11 23.913 8.278 24.55 8.525C25.21 8.779 25.766 9.123 26.322 9.678C26.8307 10.1777 27.2242 10.7825 27.475 11.45C27.722 12.087 27.89 12.813 27.94 13.878C27.952 14.144 27.962 14.365 27.97 14.59L27.976 14.784C27.991 15.276 27.997 15.847 27.999 16.972L28 17.718V19.028C28.0025 19.7574 27.9948 20.4868 27.977 21.216L27.971 21.41C27.963 21.635 27.953 21.856 27.941 22.122C27.891 23.187 27.721 23.912 27.475 24.55C27.2242 25.2175 26.8307 25.8223 26.322 26.322C25.8223 26.8307 25.2175 27.2242 24.55 27.475C23.913 27.722 23.187 27.89 22.123 27.94L21.411 27.97L21.217 27.976C20.724 27.99 20.153 27.997 19.028 27.999L18.282 28H16.973C16.2433 28.0026 15.5135 27.9949 14.784 27.977L14.59 27.971C14.3526 27.962 14.1153 27.9517 13.878 27.94C12.814 27.89 12.088 27.722 11.45 27.475C10.7828 27.2241 10.1785 26.8306 9.67902 26.322C9.16996 25.8224 8.77613 25.2176 8.52502 24.55C8.27802 23.913 8.11002 23.187 8.06002 22.122L8.03002 21.41L8.02502 21.216C8.00659 20.4868 7.99825 19.7574 8.00002 19.028V16.972C7.99725 16.2426 8.00459 15.5132 8.02202 14.784L8.02902 14.59C8.03702 14.365 8.04702 14.144 8.05902 13.878C8.10902 12.813 8.27702 12.088 8.52402 11.45C8.77571 10.7822 9.17024 10.1774 9.68002 9.678C10.1792 9.16955 10.7832 8.77607 11.45 8.525C12.088 8.278 12.813 8.11 13.878 8.06C14.144 8.048 14.366 8.038 14.59 8.03L14.784 8.024C15.5132 8.00623 16.2426 7.99857 16.972 8.001L19.028 8ZM18 13C16.6739 13 15.4022 13.5268 14.4645 14.4645C13.5268 15.4021 13 16.6739 13 18C13 19.3261 13.5268 20.5979 14.4645 21.5355C15.4022 22.4732 16.6739 23 18 23C19.3261 23 20.5979 22.4732 21.5356 21.5355C22.4732 20.5979 23 19.3261 23 18C23 16.6739 22.4732 15.4021 21.5356 14.4645C20.5979 13.5268 19.3261 13 18 13ZM18 15C18.394 14.9999 18.7841 15.0775 19.1481 15.2282C19.5121 15.3789 19.8429 15.5998 20.1215 15.8783C20.4001 16.1569 20.6211 16.4875 20.772 16.8515C20.9228 17.2154 21.0005 17.6055 21.0005 17.9995C21.0006 18.3935 20.9231 18.7836 20.7723 19.1476C20.6216 19.5116 20.4007 19.8423 20.1222 20.121C19.8437 20.3996 19.513 20.6206 19.149 20.7714C18.7851 20.9223 18.395 20.9999 18.001 21C17.2054 21 16.4423 20.6839 15.8797 20.1213C15.3171 19.5587 15.001 18.7956 15.001 18C15.001 17.2044 15.3171 16.4413 15.8797 15.8787C16.4423 15.3161 17.2054 15 18.001 15M23.251 11.5C22.9195 11.5 22.6016 11.6317 22.3671 11.8661C22.1327 12.1005 22.001 12.4185 22.001 12.75C22.001 13.0815 22.1327 13.3995 22.3671 13.6339C22.6016 13.8683 22.9195 14 23.251 14C23.5825 14 23.9005 13.8683 24.1349 13.6339C24.3693 13.3995 24.501 13.0815 24.501 12.75C24.501 12.4185 24.3693 12.1005 24.1349 11.8661C23.9005 11.6317 23.5825 11.5 23.251 11.5Z" fill="#525252"/>
</svg>
