<?xml version="1.0" encoding="iso-8859-1"?>
<!-- Uploaded to: SVG Repo, www.svgrepo.com, Generator: SVG Repo Mixer Tools -->
<svg height="800px" width="800px" version="1.1" id="Layer_1" xmlns="http://www.w3.org/2000/svg" xmlns:xlink="http://www.w3.org/1999/xlink" 
	 viewBox="0 0 512 512" xml:space="preserve">
<g>
	<path style="fill:#FBD077;" d="M167.724,401.655c-34.066,0-61.793-27.719-61.793-61.793V145.655c0-4.864-3.955-8.828-8.828-8.828
		h-8.828V83.862h8.828c34.066,0,61.793,27.719,61.793,61.793v194.207c0,4.864,3.955,8.828,8.828,8.828h8.828v52.966H167.724z"/>
	<g>
		<path style="fill:#E2B566;" d="M26.483,136.828C11.882,136.828,0,124.946,0,110.345s11.882-26.483,26.483-26.483h61.793v52.966
			H26.483z"/>
		<path style="fill:#E2B566;" d="M176.552,348.69v52.966h54.59C234.787,391.389,244.489,384,256,384
			c11.511,0,21.213,7.389,24.858,17.655h126.835C411.339,391.389,421.041,384,432.552,384s21.213,7.389,24.858,17.655h28.107
			c14.627,0,26.483-11.855,26.483-26.483s-11.855-26.483-26.483-26.483H176.552z"/>
	</g>
	<polygon style="fill:#A98258;" points="256,348.69 467.862,348.69 467.862,260.414 256,260.414 	"/>
	<polygon style="fill:#896745;" points="300.138,260.414 300.138,189.793 194.207,189.793 194.207,348.69 256,348.69 256,260.414 	
		"/>
	<polygon style="fill:#C69666;" points="256,83.862 256,189.793 300.138,189.793 300.138,260.414 450.207,260.414 450.207,83.862 	
		"/>
	<g>
		<polygon style="fill:#E8D5B2;" points="229.517,225.103 264.828,225.103 264.828,189.793 229.517,189.793 		"/>
		<polygon style="fill:#E8D5B2;" points="335.448,119.172 370.759,119.172 370.759,83.862 335.448,83.862 		"/>
		<polygon style="fill:#E8D5B2;" points="335.448,295.724 370.759,295.724 370.759,260.414 335.448,260.414 		"/>
	</g>
	<g>
		<path style="fill:#605F5E;" d="M282.483,401.655c0-14.627-11.855-26.483-26.483-26.483c-14.627,0-26.483,11.855-26.483,26.483
			s11.855,26.483,26.483,26.483C270.627,428.138,282.483,416.283,282.483,401.655"/>
		<path style="fill:#605F5E;" d="M459.034,401.655c0-14.627-11.855-26.483-26.483-26.483s-26.483,11.855-26.483,26.483
			s11.855,26.483,26.483,26.483S459.034,416.283,459.034,401.655"/>
	</g>
</g>
</svg>