<svg width="85" height="85" viewBox="0 0 85 85" fill="none" xmlns="http://www.w3.org/2000/svg">
<path d="M62.0521 46.7134C62.2501 46.5789 62.8493 46.172 63.3102 45.8588C65.619 46.363 67.3201 47.7167 67.6485 49.8369C67.875 52.9055 67.1659 55.9706 65.6147 58.6279C65.2765 59.2517 64.8027 59.7917 64.228 60.2079C63.6206 60.6343 62.7723 60.9399 62.0194 60.8473C61.3294 60.7412 60.6999 60.3922 60.2442 59.8632C59.7902 59.3527 59.4238 58.7705 59.1601 58.1403C59.1215 58.0505 59.0837 57.9603 59.0468 57.8695H52.0109C51.5969 56.9319 51.0485 56.0596 50.383 55.2802C49.8395 54.6363 48.7999 54.0586 47.6974 53.6293L47.2111 53.5438C47.1642 53.5227 46.5598 53.2359 46.529 53.2263C46.0657 52.9703 45.968 52.5766 45.9086 52.2283C45.8972 52.162 45.8875 52.1037 45.8812 52.0525C47.0123 51.5234 47.912 50.0793 48.0732 49.6723C48.1298 49.5226 48.1787 49.3702 48.2199 49.2156C48.3213 49.2655 48.4356 49.2829 48.5472 49.2654C48.6587 49.2479 48.7622 49.1963 48.8434 49.1178C49.0402 48.9504 49.1986 48.7424 49.3077 48.5082C49.5019 48.1194 49.6035 47.691 49.6045 47.2564C49.98 46.9558 50.3728 46.6775 50.7808 46.4229C51.1456 46.2129 51.5309 46.0404 51.9306 45.9082C54.4813 47.259 55.7764 47.6669 58.1344 47.6148C60.4253 47.5642 61.1995 47.1922 61.9859 46.7589L62.0521 46.7134Z" fill="white"/>
<path d="M36.9318 34.2159C37.0189 34.1404 37.1201 34.083 37.2295 34.0469C37.3389 34.0108 37.4543 33.9968 37.5692 34.0055C37.7156 34.0054 37.8594 34.0451 37.985 34.1203C38.1107 34.1955 38.2136 34.3034 38.2828 34.4324C38.5159 34.8685 38.48 35.6571 38.2987 36.1398C38.1703 36.4817 37.961 37.0044 37.4854 37.3686C37.3807 37.4502 37.2602 37.5092 37.1315 37.5419C37.0028 37.5746 36.8688 37.5803 36.7378 37.5586L36.6671 37.5444C36.5898 37.778 36.4973 38.0064 36.3901 38.2279C36.1867 38.7296 35.1017 40.4686 33.7747 41.1356C33.7329 41.4216 33.7141 41.7106 33.7186 41.9997C33.7199 42.3559 33.7806 42.7009 34.1325 42.9302C34.1489 42.9392 34.4399 43.1245 34.8706 43.3538C32.213 45.2447 28.3053 44.6892 26.2153 42.7797C26.7503 42.5763 27.464 42.3003 27.4864 42.2939C27.88 42.1473 28.0148 41.8242 28.0942 41.4768C28.1483 41.2485 28.1884 41.0171 28.2143 40.7839C27.7528 40.4565 27.3443 40.0601 27.0033 39.6085C26.4488 38.893 26.0468 38.0715 25.8219 37.1947C25.681 37.2199 25.5361 37.2126 25.3983 37.1734C25.2606 37.1342 25.1336 37.0641 25.027 36.9685C24.5757 36.5743 24.4007 36.0394 24.2942 35.6898C24.1442 35.1964 24.1592 34.4073 24.4197 33.987C24.4971 33.8627 24.6068 33.7617 24.7371 33.6949C24.8673 33.628 25.0133 33.5977 25.1594 33.6073C25.2746 33.6059 25.389 33.6274 25.4959 33.6704C25.6028 33.7135 25.7001 33.7773 25.7821 33.8582C25.7821 33.8582 24.8949 29.3438 31.9689 29.3438C38.3476 29.343 36.9318 34.2159 36.9318 34.2159Z" fill="white"/>
<path d="M35.2549 43.2009C35.0163 43.0791 34.7815 42.9508 34.5503 42.816C34.4843 42.7773 34.4186 42.7382 34.3534 42.6985C34.3374 42.6888 34.321 42.679 34.3051 42.6689C34.2936 42.6616 34.2468 42.6304 34.2721 42.6496C34.2471 42.6299 34.2235 42.6084 34.2014 42.5854C34.1966 42.5805 34.145 42.5224 34.1663 42.5486C34.1827 42.5691 34.138 42.5057 34.1324 42.4964C34.12 42.4759 34.1094 42.4547 34.0982 42.4335C34.0652 42.3713 34.1047 42.4651 34.0868 42.4033C34.0789 42.3759 34.0699 42.3493 34.063 42.3215C34.0561 42.2937 34.0508 42.2658 34.0454 42.2376C34.0323 42.1702 34.0454 42.2815 34.0412 42.2061C34.0245 41.9238 34.0306 41.6406 34.0594 41.3592C34.0589 41.2763 34.0257 41.197 33.9671 41.1384C33.9085 41.0798 33.8292 41.0467 33.7463 41.0461C33.6638 41.0478 33.5852 41.0814 33.5268 41.1397C33.4684 41.1981 33.4349 41.2767 33.4332 41.3592C33.3777 41.9214 33.3298 42.6266 33.7809 43.0504C33.9069 43.1591 34.0445 43.2535 34.1912 43.3321C34.436 43.4768 34.6852 43.6135 34.9387 43.7423C35.0109 43.7823 35.0957 43.7929 35.1755 43.772C35.2553 43.7511 35.3239 43.7002 35.3672 43.63C35.4083 43.5581 35.4195 43.4729 35.3985 43.3928C35.3775 43.3127 35.3259 43.244 35.2549 43.2015V43.2009Z" fill="#211715"/>
<path d="M23.9034 58.3061C23.6514 58.502 23.3804 58.6722 23.0945 58.8141C22.2643 59.2209 21.2313 59.3387 20.4001 58.9338C19.4416 58.4671 18.9506 57.4334 18.6876 56.4418C18.1846 54.5426 18.2581 52.5469 18.5049 50.6025C18.7209 48.9023 19.1051 47.1375 20.2496 45.8154C21.2788 44.6272 24.1665 43.3466 26.198 42.7606C28.3171 44.7197 32.3411 45.2704 35.0081 43.2543C36.7147 43.6574 37.9892 44.0617 39.2457 45.0559C39.6382 45.3881 39.9585 45.7971 40.1869 46.2577C40.4036 46.672 40.5783 47.3484 40.6912 47.7789C41.1301 49.4355 41.4366 51.1244 41.6079 52.8296C41.5051 52.9973 41.3595 53.1344 41.1859 53.227C41.1519 53.2367 40.5508 53.5235 40.5006 53.5446C39.3726 53.9739 37.85 54.6371 37.2942 55.2809C36.5364 56.1585 36.2451 56.8282 35.8555 57.9557C35.8555 57.9557 27.1613 57.9557 24.319 57.9557C24.1851 58.0783 24.047 58.1957 23.9034 58.3061Z" fill="white"/>
<path d="M51.01 36.8252C51.0863 36.7284 51.1842 36.6508 51.2958 36.5985C51.4075 36.5462 51.5298 36.5208 51.653 36.5242C51.7635 36.5198 51.8737 36.5373 51.9774 36.5757C52.081 36.6141 52.1761 36.6726 52.257 36.748C52.257 36.748 51.542 31.8499 57.4133 31.8499C63.6519 31.8499 62.9585 36.7896 62.9585 36.7896C63.04 36.7149 63.1354 36.6571 63.2394 36.6195C63.3433 36.5819 63.4537 36.5653 63.5641 36.5705C63.7046 36.5665 63.8436 36.6006 63.9662 36.6692C64.0889 36.7379 64.1906 36.8386 64.2605 36.9605C64.4953 37.3724 64.4823 38.1296 64.3219 38.5975C64.208 38.9287 64.0218 39.4356 63.5753 39.7978C63.4771 39.8789 63.3631 39.9388 63.2406 39.9736C63.1181 40.0084 62.9897 40.0175 62.8635 40.0002L62.7954 39.9885C62.7275 40.2146 62.6449 40.4361 62.5481 40.6515C62.3557 41.1678 61.2489 43.047 59.8864 43.6226C59.905 43.7082 59.9122 43.796 59.9078 43.8835C59.8898 44.102 59.8574 44.3191 59.8108 44.5333L60.1732 44.6161C60.3152 44.5486 60.4769 44.5352 60.6281 44.5783C60.7597 44.5995 60.8798 44.6657 60.968 44.7657C61.0563 44.8656 61.1071 44.9931 61.1119 45.1263C61.6468 45.5078 62.4672 45.8294 63.139 46.106L61.9858 46.7594C61.1994 47.1927 60.4252 47.5647 58.1343 47.6153C55.7791 47.6675 54.4843 47.2604 51.9402 45.9132C53.0989 45.4909 54.2802 45.198 54.8379 44.8241C54.9045 44.7928 54.9636 44.7475 55.0111 44.6913C55.0339 44.6479 55.0484 44.6006 55.0541 44.5519C55.1124 44.2252 55.1706 43.899 55.2285 43.5734C54.6283 43.2965 54.0934 42.8439 53.5845 42.2305C53.0336 41.5596 52.6259 40.783 52.3864 39.9485C52.2518 39.9764 52.1127 39.9732 51.9795 39.9393C51.8463 39.9054 51.7226 39.8416 51.6178 39.7528C51.1741 39.3875 50.9915 38.8786 50.8805 38.5467C50.7239 38.077 50.7162 37.3203 50.9548 36.9103C50.9714 36.8808 50.9898 36.8524 51.01 36.8252Z" fill="white"/>
<path d="M49.124 48.1464C49.6756 47.5485 50.317 47.0403 51.0253 46.6403C51.6777 46.2619 52.4418 46.0532 53.1567 45.8304C53.5401 45.7105 53.3764 45.1058 52.9902 45.2265C52.2249 45.4658 51.4073 45.6942 50.7091 46.0995C49.9542 46.526 49.2701 47.067 48.6812 47.7034C48.4133 48.0035 48.8548 48.4471 49.124 48.147V48.1464Z" fill="#211715"/>
<path d="M34.355 43.4242C36.0089 43.7999 37.8067 44.2041 39.1192 45.356C39.454 45.6612 39.7279 46.027 39.9262 46.4343C40.1066 46.8317 40.245 47.2468 40.3393 47.6729C40.5963 48.6398 40.8187 49.6148 40.9889 50.601C41.1883 51.7563 41.316 52.9218 41.4117 54.09C41.4137 54.1724 41.4474 54.2509 41.5057 54.3091C41.5639 54.3674 41.6424 54.4011 41.7248 54.4031C41.8077 54.4025 41.887 54.3693 41.9456 54.3107C42.0041 54.2521 42.0373 54.1728 42.038 54.09C41.8777 51.9318 41.5281 49.792 40.9931 47.695C40.8887 47.2552 40.7552 46.8228 40.5935 46.4006C40.4008 45.9348 40.1279 45.5065 39.7873 45.135C39.4727 44.8139 39.1171 44.5357 38.7296 44.3078C38.3632 44.0794 37.9789 43.881 37.5804 43.7147C36.5986 43.2996 35.5581 43.056 34.5215 42.8207C34.129 42.7315 33.9615 43.3352 34.355 43.4246V43.4242Z" fill="#211715"/>
<path d="M36.691 56.0814C36.3396 56.6339 36.1203 57.1889 35.8559 57.9556H52.0465C51.6306 56.9849 51.0697 56.0831 50.383 55.2808C49.7988 54.5893 48.6414 53.9731 47.4487 53.536C47.0155 54.2297 45.7387 54.8473 44.441 54.9258C43.7096 54.973 42.9752 54.923 42.2569 54.7771C41.484 54.6163 40.7272 54.2676 40.2259 53.6507C39.1375 54.0787 37.8059 54.688 37.294 55.2808C37.0736 55.5325 36.872 55.8001 36.691 56.0814Z" fill="#FEBE69"/>
<path d="M48.4519 46.4772C48.5287 46.4106 48.619 46.3614 48.7165 46.3328C48.814 46.3043 48.9166 46.2972 49.0172 46.3119C49.1158 46.3258 49.2101 46.3617 49.2931 46.4169C49.3761 46.4721 49.4456 46.5452 49.4966 46.6308C49.5558 46.7489 49.5894 46.8781 49.5954 47.01C49.6385 47.5264 49.5388 48.0446 49.3072 48.508C49.1981 48.7423 49.0397 48.9502 48.8428 49.1176C48.7617 49.1961 48.6584 49.2477 48.5468 49.2652C48.4353 49.2827 48.3211 49.2654 48.2198 49.2156C48.1693 49.4142 48.1024 49.5878 48.0726 49.6722C47.912 50.0793 47.0123 51.5234 45.8807 52.0525C45.8869 52.1036 45.8967 52.162 45.9081 52.2282C45.968 52.5766 46.0646 52.9702 46.5285 53.2262C46.5593 53.2359 47.1636 53.5227 47.2106 53.5438L47.3901 53.6242L47.3493 53.6753C46.8419 54.3104 45.6504 54.8519 44.4405 54.9251C43.7091 54.9723 42.9746 54.9223 42.2564 54.7764C41.5405 54.6275 40.8384 54.3174 40.3402 53.7822L40.2254 53.6589L40.4994 53.5438C40.5496 53.5227 41.1507 53.2359 41.1848 53.2262C41.6448 52.9702 41.7437 52.5766 41.8036 52.2282C41.8086 52.2071 41.8117 52.1877 41.815 52.1668C41.2059 51.897 40.6646 51.4949 40.2304 50.9896C39.7832 50.4885 39.4398 49.9037 39.2201 49.269C39.1254 49.3021 39.0233 49.3082 38.9253 49.2866C38.8273 49.2649 38.7373 49.2164 38.6653 49.1464C38.4684 48.979 38.31 48.7711 38.2008 48.5369C37.9693 48.0734 37.8696 47.5552 37.9127 47.0389C37.9186 46.9069 37.9522 46.7777 38.0114 46.6596C38.0624 46.574 38.132 46.5009 38.215 46.4457C38.298 46.3906 38.3923 46.3547 38.491 46.3407C38.5916 46.326 38.6941 46.3332 38.7917 46.3617C38.8892 46.3902 38.9794 46.4394 39.0562 46.506C39.0562 46.506 38.1904 42.7178 43.4968 42.7178C48.8032 42.7178 48.4519 46.4772 48.4519 46.4772Z" fill="white"/>
<path d="M50.8913 43.3641C50.5026 42.9647 50.3724 42.6016 50.2469 42.0313C50.1599 41.6048 50.0343 41.187 49.8718 40.7832C49.7516 40.5015 49.5721 40.2492 49.3453 40.0434C48.719 39.4852 48.1667 39.2795 47.3847 39.39C46.7765 39.4762 46.2168 39.7273 45.9656 40.2659V40.2668C45.8351 40.2081 45.7022 40.1548 45.5668 40.1071C44.9646 39.8995 44.3316 39.7956 43.6947 39.8001C42.5608 39.7808 41.4501 40.1226 40.5233 40.7761C39.5338 41.4859 38.4131 42.7502 38.3235 44.7967C38.3174 45.3171 38.362 45.8368 38.4566 46.3486C38.4679 46.3449 38.4796 46.3423 38.4914 46.3409C38.592 46.3262 38.6945 46.3333 38.792 46.3618C38.8896 46.3904 38.9798 46.4396 39.0566 46.5062L39.2159 46.6497C39.2921 46.3389 39.4365 46.049 39.6387 45.8011C39.841 45.5532 40.096 45.3534 40.3851 45.2164C40.4018 45.2087 40.4185 45.2012 40.4353 45.1939C41.2924 45.1939 43.4972 45.1939 43.4972 45.1939C43.7735 45.1445 44.0438 45.0658 44.3034 44.959C44.7368 44.7182 45.1112 44.3839 45.3994 43.9805C45.7724 44.0249 46.1325 44.1448 46.4577 44.3327C46.7829 44.5207 47.0665 44.7729 47.2912 45.074C47.6119 45.4936 47.8464 45.9725 47.9812 46.4831C48.2341 46.4806 48.4509 46.477 48.4509 46.477C48.5216 46.4156 48.6037 46.369 48.6926 46.3397C48.7814 46.3104 48.8752 46.299 48.9685 46.3063C49.0559 45.8081 49.0886 45.3018 49.0661 44.7964C49.0444 44.2839 48.9507 43.7769 48.7879 43.2904L49.0236 43.3864C49.5933 43.6243 50.1969 43.5819 50.8913 43.3641Z" fill="#85807F"/>
<path d="M41.5029 52.1668C41.5029 52.1713 41.5193 52.0755 41.509 52.1146C41.5056 52.1277 41.5038 52.1407 41.5014 52.1538C41.4983 52.1697 41.4958 52.1856 41.4928 52.2015C41.4858 52.2394 41.4783 52.2772 41.4699 52.3148C41.4535 52.3895 41.4324 52.4631 41.4064 52.535C41.402 52.547 41.375 52.6145 41.3965 52.5622C41.4169 52.5125 41.3924 52.5695 41.3869 52.5808C41.3685 52.6185 41.3481 52.6551 41.3257 52.6906C41.3142 52.7087 41.3017 52.7262 41.2895 52.7439C41.2582 52.79 41.3296 52.6977 41.2921 52.7401C41.2621 52.775 41.2302 52.8082 41.1966 52.8397C41.1788 52.8561 41.16 52.8714 41.1416 52.887C41.1155 52.9091 41.1614 52.8707 41.1623 52.8707C41.1567 52.8707 41.1403 52.8865 41.1354 52.8899C41.1137 52.9048 41.0894 52.9171 41.0686 52.933C41.0251 52.9662 41.0947 52.9271 41.0971 52.9271C41.0434 52.9414 40.9921 52.9633 40.9447 52.9923C40.8356 53.0423 40.7273 53.0936 40.6185 53.1446C40.5272 53.1878 40.4358 53.2336 40.3422 53.2735C40.2717 53.3148 40.2202 53.382 40.1986 53.4607C40.177 53.5422 40.1883 53.6289 40.2302 53.702C40.2717 53.7722 40.3388 53.8236 40.4173 53.8455C40.499 53.8627 40.5841 53.8515 40.6587 53.8139C40.859 53.7282 41.0536 53.6279 41.2517 53.5369L41.3077 53.5116C41.3661 53.4855 41.2306 53.5491 41.2685 53.5282C41.3313 53.4986 41.3925 53.4657 41.4519 53.4296C41.5121 53.3883 41.5698 53.3434 41.6247 53.2953C41.7859 53.1463 41.9104 52.9621 41.9885 52.7571C42.0228 52.6725 42.0502 52.5852 42.0704 52.4961C42.1019 52.3885 42.1217 52.2779 42.1295 52.166C42.1295 52.083 42.0965 52.0033 42.0378 51.9446C41.9791 51.8859 41.8994 51.8529 41.8164 51.8529C41.7333 51.8529 41.6537 51.8859 41.595 51.9446C41.5362 52.0033 41.5033 52.083 41.5033 52.166L41.5029 52.1668Z" fill="#211715"/>
<path d="M45.5679 52.0517C45.623 52.4718 45.7087 52.8857 46.0023 53.2099C46.0839 53.2971 46.1759 53.374 46.2763 53.4389C46.3293 53.4763 46.387 53.5066 46.448 53.5289C46.4692 53.5361 46.3531 53.4869 46.3897 53.5043C46.3979 53.5082 46.4065 53.5118 46.4148 53.5156C46.5268 53.5661 46.6377 53.619 46.7489 53.6713C46.8504 53.7189 46.9513 53.7681 47.0535 53.8148C47.1257 53.8547 47.2105 53.8653 47.2902 53.8444C47.37 53.8234 47.4387 53.7726 47.482 53.7025C47.5229 53.6305 47.5341 53.5454 47.5131 53.4653C47.4921 53.3853 47.4406 53.3166 47.3697 53.274C47.1751 53.1861 46.9834 53.0913 46.7898 53.0023C46.7589 52.988 46.728 52.9738 46.6968 52.9602C46.6703 52.9465 46.6428 52.9349 46.6145 52.9255C46.6206 52.9271 46.6824 52.9623 46.6545 52.9376C46.6444 52.9305 46.6338 52.924 46.6228 52.9183C46.6025 52.9053 46.5829 52.8922 46.5629 52.8792C46.5571 52.8751 46.525 52.8511 46.5577 52.8759C46.5905 52.9007 46.5517 52.8704 46.5454 52.8651C46.5101 52.835 46.4767 52.8027 46.4455 52.7683C46.4333 52.7518 46.42 52.7362 46.4057 52.7216C46.4057 52.7216 46.4416 52.7738 46.4244 52.7452C46.4176 52.734 46.4091 52.7237 46.4018 52.7128C46.3786 52.6781 46.3574 52.6421 46.3383 52.6051C46.3296 52.5884 46.3219 52.5713 46.3136 52.5543C46.2909 52.5081 46.3366 52.6173 46.3136 52.5519C46.2838 52.4698 46.2596 52.3857 46.2409 52.3003C46.2322 52.2603 46.2245 52.2203 46.2173 52.1801C46.2121 52.1506 46.207 52.1209 46.2022 52.0912C46.1986 52.0704 46.1838 51.9666 46.1951 52.0529C46.1922 51.9704 46.1598 51.8917 46.1038 51.8311C46.0446 51.7729 45.965 51.7401 45.882 51.7397C45.7305 51.7465 45.5459 51.879 45.5688 52.0529L45.5679 52.0517Z" fill="#211715"/>
<path d="M46.2361 40.4239C46.424 40.0388 46.7797 39.8432 47.1845 39.7454C47.6015 39.6294 48.0448 39.6516 48.448 39.8087C48.8665 39.991 49.2214 40.2934 49.4678 40.6776C49.737 41.1176 49.8438 41.6704 49.9567 42.1673C50.0572 42.6973 50.3043 43.1886 50.6699 43.5854L50.808 43.0619C50.2397 43.2366 49.6721 43.3118 49.1078 43.0846C49.0278 43.0631 48.9424 43.074 48.8703 43.1149C48.7982 43.1558 48.7451 43.2235 48.7225 43.3033C48.7025 43.3833 48.714 43.468 48.7548 43.5398C48.7955 43.6115 48.8623 43.6648 48.9414 43.6886C49.5996 43.9534 50.3113 43.8696 50.9745 43.6659C51.0267 43.6505 51.074 43.6218 51.1119 43.5828C51.1498 43.5438 51.177 43.4956 51.1909 43.443C51.2048 43.3904 51.2049 43.3351 51.1912 43.2825C51.1775 43.2298 51.1505 43.1816 51.1127 43.1424C50.7538 42.7669 50.6356 42.3264 50.523 41.8317C50.3973 41.2795 50.2422 40.6688 49.9039 40.2058C49.5735 39.7586 49.126 39.4115 48.6107 39.2027C48.1142 39.0242 47.5755 38.9992 47.0645 39.1307C46.4973 39.2573 45.9574 39.5707 45.6953 40.1077C45.6555 40.1799 45.6449 40.2646 45.6658 40.3443C45.6868 40.4241 45.7375 40.4927 45.8076 40.5361C45.8795 40.5772 45.9647 40.5885 46.0448 40.5675C46.125 40.5465 46.1937 40.495 46.2361 40.4239Z" fill="#211715"/>
<path d="M48.6733 46.6986C48.7146 46.6658 48.7623 46.6419 48.8134 46.6286C48.8644 46.6153 48.9177 46.6128 48.9698 46.6213C49.0219 46.6298 49.0716 46.6491 49.1157 46.6779C49.1599 46.7068 49.1976 46.7445 49.2263 46.7888C49.2784 46.9156 49.3007 47.0526 49.2915 47.1893C49.2962 47.3495 49.2847 47.5097 49.2572 47.6675C49.2026 47.9833 49.0881 48.2858 48.9201 48.5587C48.8026 48.7446 48.6107 49.0035 48.3828 48.9427C47.9929 48.8383 47.8267 49.4426 48.2163 49.5465C48.728 49.683 49.1287 49.3529 49.4077 48.9549C49.678 48.5489 49.8456 48.0832 49.896 47.598C49.951 47.1482 49.9512 46.5766 49.5868 46.2494C49.3985 46.0854 49.157 45.9955 48.9073 45.9966C48.6575 45.9976 48.4168 46.0896 48.2299 46.2551C48.1717 46.3142 48.1391 46.3937 48.1391 46.4766C48.1391 46.5594 48.1717 46.639 48.2299 46.698C48.2894 46.7551 48.3688 46.787 48.4513 46.787C48.5338 46.787 48.6131 46.7551 48.6727 46.698L48.6733 46.6986Z" fill="#211715"/>
<path d="M39.2787 46.2848C39.0917 46.1193 38.851 46.0274 38.6013 46.0264C38.3516 46.0253 38.1101 46.1151 37.9217 46.279C37.5575 46.606 37.5576 47.1781 37.6125 47.6276C37.6628 48.1128 37.8304 48.5785 38.1008 48.9845C38.38 49.3827 38.7792 49.7127 39.2921 49.5761C39.6812 49.4717 39.5161 48.8682 39.1256 48.9723C38.8981 49.0329 38.7055 48.7741 38.5883 48.5883C38.4202 48.3154 38.3058 48.013 38.2512 47.6971C38.225 47.5478 38.2134 47.3962 38.2165 47.2445C38.2049 47.0993 38.2275 46.9533 38.2825 46.8184C38.3112 46.7741 38.3489 46.7364 38.3931 46.7075C38.4372 46.6787 38.4869 46.6594 38.539 46.6509C38.5911 46.6424 38.6444 46.6449 38.6954 46.6582C38.7465 46.6716 38.7942 46.6954 38.8355 46.7282C38.8952 46.7849 38.9745 46.8165 39.0569 46.8165C39.1393 46.8165 39.2185 46.7849 39.2783 46.7282C39.3364 46.6692 39.3689 46.5897 39.3689 46.5068C39.3689 46.424 39.3364 46.3445 39.2783 46.2854L39.2787 46.2848Z" fill="#211715"/>
<path d="M47.9674 48.8774C47.9243 49.1203 47.8584 49.3586 47.7707 49.5892C47.7535 49.6389 47.8078 49.5198 47.7771 49.5735C47.7641 49.5956 47.7549 49.6205 47.7436 49.6434C47.7192 49.6928 47.693 49.7412 47.6661 49.7892C47.5151 50.0575 47.3432 50.3134 47.152 50.5547C46.6865 51.1418 46.0851 51.7447 45.3275 51.9103C44.934 51.9963 45.1006 52.6001 45.494 52.5141C46.3544 52.3261 47.0625 51.6661 47.5946 50.9975C48.0549 50.4189 48.4607 49.79 48.5709 49.0439C48.5903 48.9639 48.5785 48.8796 48.5379 48.808C48.4972 48.7364 48.4309 48.683 48.3523 48.6586C48.2722 48.6372 48.1869 48.6481 48.1148 48.6891C48.0427 48.73 47.9896 48.7977 47.967 48.8774H47.9674Z" fill="#211715"/>
<path d="M38.7955 48.9411C39.0283 49.8382 39.485 50.6615 40.1228 51.3339C40.7596 52.0048 41.583 52.5512 42.5137 52.6826C42.5936 52.7019 42.678 52.69 42.7495 52.6493C42.821 52.6087 42.8744 52.5424 42.8988 52.4638C42.9203 52.3837 42.9094 52.2984 42.8685 52.2264C42.8276 52.1543 42.7599 52.1012 42.6801 52.0786C41.037 51.8468 39.7959 50.3083 39.3995 48.7746C39.2986 48.3848 38.6949 48.5501 38.7955 48.9411Z" fill="#211715"/>
<path d="M49.2774 46.3547C49.516 44.8953 49.37 43.3462 48.5598 42.0763C47.7846 40.8822 46.5883 40.0236 45.209 39.6711C43.7942 39.3083 42.2959 39.4688 40.99 40.123C40.0214 40.6276 39.2198 41.4023 38.6825 42.3532C38.339 42.9808 38.1222 43.6699 38.0446 44.3813C37.9839 45.0403 38.0149 45.7047 38.1369 46.3552C38.1595 46.4349 38.2126 46.5026 38.2846 46.5435C38.3567 46.5844 38.442 46.5953 38.5221 46.5739C38.6011 46.5501 38.6679 46.4969 38.7086 46.4251C38.7493 46.3534 38.7608 46.2687 38.7407 46.1887C38.5733 45.1595 38.5922 44.0127 39.0502 43.0117C39.4483 42.1604 40.0759 41.437 40.8625 40.9228C41.9353 40.2458 43.2153 39.9758 44.4701 40.1617C45.7448 40.3401 46.9061 40.9903 47.7243 41.9838C48.6842 43.1521 48.9116 44.7312 48.6735 46.1892C48.6539 46.2692 48.6656 46.3537 48.7063 46.4253C48.747 46.4969 48.8134 46.5502 48.8922 46.5744C48.9724 46.5958 49.0578 46.5848 49.1299 46.5436C49.202 46.5025 49.255 46.4346 49.2774 46.3547Z" fill="#211715"/>
<path d="M52.2812 57.7116C51.8558 56.7169 51.27 55.7987 50.5474 54.9937C49.8279 54.1952 48.7622 53.7123 47.7806 53.3275C47.7006 53.3061 47.6153 53.317 47.5432 53.3579C47.4711 53.3988 47.418 53.4665 47.3954 53.5462C47.3752 53.6262 47.3867 53.7109 47.4275 53.7827C47.4682 53.8544 47.5351 53.9077 47.6142 53.9314C48.5092 54.2823 49.4875 54.7321 50.1335 55.469C50.8004 56.2321 51.3427 57.0955 51.7405 58.0276C51.7828 58.099 51.8514 58.1508 51.9316 58.1718C52.0118 58.1928 52.0971 58.1814 52.1689 58.1399C52.239 58.0966 52.2897 58.0279 52.3106 57.9482C52.3315 57.8685 52.321 57.7838 52.2812 57.7116Z" fill="#211715"/>
<path d="M36.1573 58.0388C36.433 57.2429 36.747 56.4753 37.2664 55.8036C37.4806 55.5151 37.7414 55.2644 38.0383 55.0619C38.4071 54.8233 38.7931 54.6121 39.193 54.43C39.6482 54.2158 40.1137 54.0255 40.5835 53.8459C40.6624 53.8218 40.729 53.7685 40.7697 53.6969C40.8104 53.6252 40.8221 53.5407 40.8024 53.4607C40.7797 53.381 40.7266 53.3133 40.6545 53.2724C40.5824 53.2315 40.4972 53.2205 40.4171 53.2419C39.5275 53.5811 38.6234 53.9465 37.8174 54.4592C37.0867 54.924 36.5486 55.6205 36.1559 56.386C35.9204 56.8667 35.7191 57.3633 35.5534 57.8723C35.4212 58.254 36.0259 58.418 36.1572 58.0388H36.1573Z" fill="#211715"/>
<path d="M45.8855 44.4059C46.3512 44.5807 46.7579 44.8837 47.0585 45.2801C47.286 45.5808 47.4649 45.9154 47.5886 46.2717C47.6128 46.3407 47.6353 46.4103 47.656 46.4805C47.6644 46.5085 47.6724 46.5366 47.6802 46.5647C47.686 46.5859 47.6917 46.6071 47.6973 46.6283C47.7125 46.6968 47.7199 46.6553 47.7193 46.5038L47.8317 46.3915L47.816 46.4019L47.974 46.3593L47.9539 46.3574C47.8711 46.358 47.7918 46.3912 47.7332 46.4498C47.6746 46.5084 47.6414 46.5877 47.6408 46.6706C47.6424 46.7531 47.676 46.8318 47.7343 46.8901C47.7927 46.9485 47.8714 46.982 47.9539 46.9837C48.2149 47.0068 48.3503 46.7295 48.3102 46.5081C48.2754 46.3423 48.226 46.1799 48.1628 46.0228C48.0423 45.6879 47.8801 45.3696 47.6801 45.0753C47.2848 44.4902 46.7151 44.0446 46.052 43.802C45.9719 43.7806 45.8867 43.7916 45.8147 43.8325C45.7427 43.8734 45.6896 43.941 45.6668 44.0206C45.6464 44.1007 45.6578 44.1855 45.6986 44.2573C45.7393 44.3292 45.8063 44.3824 45.8855 44.4059Z" fill="#211715"/>
<path d="M45.5049 42.8988C45.4206 43.4136 45.1619 43.8838 44.7722 44.2304C44.5811 44.4063 44.3711 44.5602 44.1459 44.6895C44.1279 44.7004 44.0806 44.7139 44.1574 44.687C44.1336 44.6953 44.1103 44.7051 44.0865 44.7131C44.0242 44.7354 43.9609 44.7551 43.8975 44.7739C43.7384 44.821 43.5771 44.8601 43.4147 44.8925C43.3351 44.9153 43.2676 44.9684 43.2267 45.0404C43.1857 45.1124 43.1747 45.1976 43.1959 45.2776C43.2194 45.3568 43.2727 45.4238 43.3445 45.4646C43.4163 45.5054 43.5011 45.5168 43.5812 45.4964C43.8859 45.4491 44.1824 45.3593 44.4622 45.2296C44.7371 45.0788 44.9904 44.8915 45.2151 44.6728C45.6815 44.2494 45.9956 43.6844 46.1089 43.0648C46.1284 42.9848 46.1166 42.9004 46.0759 42.8288C46.0353 42.7572 45.9689 42.7038 45.8902 42.6795C45.8101 42.6581 45.7248 42.669 45.6528 42.7099C45.5807 42.7509 45.5276 42.8185 45.505 42.8983L45.5049 42.8988Z" fill="#211715"/>
<path d="M43.0354 42.906C42.8136 43.3784 42.5103 43.808 42.1395 44.1752C41.7702 44.5235 41.2851 44.6064 40.8127 44.7363C40.3323 44.8513 39.8925 45.0951 39.5404 45.4415C39.2095 45.7824 38.984 46.2116 38.8909 46.6775C38.871 46.7575 38.8827 46.8421 38.9234 46.9137C38.9641 46.9854 39.0308 47.0387 39.1097 47.0626C39.1898 47.0839 39.275 47.073 39.347 47.0321C39.419 46.9912 39.4721 46.9236 39.4949 46.844C39.5734 46.4187 39.7952 46.0332 40.1234 45.7516C40.4725 45.4515 40.9146 45.3586 41.3473 45.2439C41.8416 45.136 42.296 44.8927 42.6597 44.5411C43.0319 44.1516 43.3411 43.7064 43.5761 43.2216C43.616 43.1494 43.6265 43.0647 43.6056 42.9849C43.5847 42.9051 43.5339 42.8365 43.4638 42.7931C43.3919 42.752 43.3067 42.7407 43.2266 42.7617C43.1465 42.7828 43.0778 42.8343 43.0353 42.9055L43.0354 42.906Z" fill="#211715"/>
<path d="M40.1193 54.0038C40.8724 54.7969 41.9448 55.0922 42.9998 55.2065C44.1276 55.3286 45.2701 55.2387 46.3169 54.7814C46.7982 54.5884 47.2278 54.2855 47.5712 53.8969C47.6278 53.8371 47.6593 53.7578 47.6593 53.6755C47.6593 53.5931 47.6278 53.5139 47.5712 53.4541C47.5122 53.3959 47.4327 53.3633 47.3498 53.3633C47.2669 53.3633 47.1874 53.3959 47.1284 53.4541C46.5923 54.1095 45.6824 54.429 44.8733 54.5644C44.3565 54.6398 43.8326 54.6544 43.3124 54.6081C42.8015 54.5796 42.2963 54.4867 41.8087 54.3317C41.3363 54.1808 40.9082 53.9162 40.5621 53.5609C40.284 53.2682 39.8417 53.7115 40.1193 54.0038Z" fill="#211715"/>
<path d="M62.5961 39.5129C62.5072 39.8896 62.3844 40.2576 62.2293 40.6122C62.2684 40.5154 62.2103 40.6514 62.1968 40.68C62.1707 40.7351 62.1422 40.7897 62.1135 40.8438C62.0472 40.9686 61.9763 41.0908 61.9024 41.2111C61.5227 41.8516 61.0379 42.4236 60.4684 42.9032C60.1626 43.1632 59.8009 43.349 59.4115 43.4463C59.0187 43.5359 59.1849 44.1399 59.578 44.0502C60.397 43.8634 61.0817 43.2704 61.619 42.6509C62.0795 42.137 62.465 41.5604 62.7639 40.9384C62.78 40.9032 62.7951 40.8676 62.8101 40.832C62.8117 40.8284 62.8585 40.7178 62.8371 40.7667C62.8178 40.811 62.839 40.7646 62.8422 40.7576C62.8572 40.7248 62.8708 40.6912 62.8848 40.6579C62.9108 40.5957 62.9369 40.5333 62.9603 40.4702C63.0604 40.2131 63.1403 39.9486 63.1995 39.6791C63.2822 39.286 62.6786 39.118 62.5955 39.5126L62.5961 39.5129Z" fill="#211715"/>
<path d="M61.3594 29.1556C60.9909 28.9003 60.5969 28.6839 60.1838 28.51C59.371 28.1625 58.4903 28.003 57.6073 28.0434C54.6569 27.8697 51.8329 30.0788 51.2526 32.8738C51.0948 33.628 51.1555 34.7948 51.2407 35.4072C51.2913 35.7702 51.4022 36.2647 51.5726 36.5301C51.5987 36.5268 51.6248 36.5251 51.653 36.5242C51.7635 36.5198 51.8737 36.5373 51.9774 36.5757C52.081 36.6141 52.1761 36.6726 52.257 36.748L52.8702 35.8402C53.2616 35.5758 53.7262 35.3751 54.3382 35.1225C54.4912 35.0672 54.6382 34.9963 54.7768 34.9109C54.7741 34.9611 54.7724 34.9944 54.7724 34.9944C54.7594 35.0502 54.764 35.1087 54.7856 35.1617C54.8072 35.2148 54.8447 35.2599 54.8929 35.2907C55.0252 35.3366 55.1653 35.3556 55.305 35.3464C55.811 35.3679 56.313 35.2471 56.7539 34.9978C56.8116 34.9635 56.8652 34.929 56.9153 34.8934H59.2265C59.5639 34.6296 59.8467 34.3025 60.0591 33.9305C60.2857 33.5346 60.4418 33.1023 60.5203 32.6529H61.0174C61.1107 33.408 61.415 34.1197 61.7407 34.8073C61.9365 35.2208 62.1772 35.6639 62.6032 35.8306L62.9591 36.7894C63.0406 36.7147 63.1361 36.6569 63.24 36.6193C63.344 36.5817 63.4544 36.565 63.5648 36.5703C63.6771 36.5731 63.788 36.5957 63.8924 36.6371C64.3205 35.5611 64.1012 33.8072 63.9225 32.9229C63.8316 32.472 63.6843 32.0344 63.4841 31.6202C63.1716 30.9374 62.7214 30.3266 62.1617 29.8261L61.3594 29.1556Z" fill="#FEBE69"/>
<path d="M51.979 39.6191C52.219 40.696 52.719 41.6978 53.4353 42.537C54.1277 43.347 55.0217 43.9914 56.0942 44.1549C56.1742 44.1743 56.2586 44.1625 56.3302 44.1218C56.4018 44.0812 56.4552 44.0147 56.4795 43.9361C56.5009 43.856 56.49 43.7707 56.449 43.6987C56.4081 43.6266 56.3404 43.5735 56.2607 43.5509C55.2821 43.4014 54.5104 42.8333 53.8781 42.0939C53.2375 41.3321 52.7928 40.4253 52.5829 39.4523C52.4952 39.0591 51.8914 39.2256 51.979 39.6188V39.6191Z" fill="#211715"/>
<path d="M61.5174 28.8851C60.4244 28.1224 59.1221 27.7168 57.7893 27.7239C57.2472 27.7131 56.705 27.7472 56.1685 27.8256C55.6535 27.9232 55.1523 28.0829 54.6758 28.3011C52.8279 29.133 51.2553 30.9029 50.9231 32.9392C50.8344 33.5483 50.8151 34.1654 50.8657 34.7789C50.9058 35.3849 50.9788 36.0074 51.2344 36.5647C51.2768 36.6359 51.3455 36.6876 51.4257 36.7086C51.5058 36.7296 51.591 36.7183 51.6629 36.677C51.7332 36.6338 51.7841 36.5651 51.805 36.4853C51.8259 36.4055 51.8153 36.3207 51.7752 36.2485C51.6751 36.0073 51.606 35.7543 51.5698 35.4957C51.5369 35.3073 51.5176 35.1147 51.5001 34.8926C51.4567 34.3854 51.4552 33.8754 51.4956 33.3679C51.5777 32.4453 51.9804 31.5602 52.5225 30.8186C53.6301 29.3036 55.4854 28.3176 57.3709 28.3475C57.6913 28.3526 58.0123 28.3417 58.3322 28.3668C58.6729 28.3952 59.01 28.4557 59.3392 28.5477C60.0045 28.7346 60.6339 29.0314 61.2014 29.4258C61.5346 29.6541 61.8483 29.1118 61.5174 28.8851Z" fill="#211715"/>
<path d="M64.1695 36.7802C64.536 35.9077 64.4922 34.8643 64.392 33.9424C64.3496 33.5124 64.2808 33.0853 64.1861 32.6637C64.0442 32.0838 63.8197 31.5273 63.5194 31.0113C63.2152 30.4867 62.8319 30.0121 62.3831 29.6044C62.0868 29.3318 61.6428 29.774 61.9403 30.0472C62.7011 30.7415 63.2519 31.6353 63.5301 32.6271C63.7516 33.461 63.8509 34.3226 63.8248 35.185C63.8286 35.6732 63.7407 36.1577 63.5656 36.6135C63.544 36.6936 63.5548 36.7789 63.5958 36.8511C63.6368 36.9232 63.7045 36.9763 63.7844 36.9988C63.8644 37.0187 63.949 37.0071 64.0207 36.9664C64.0924 36.9256 64.1457 36.8589 64.1695 36.7799V36.7802Z" fill="#211715"/>
<path d="M60.7043 32.6532C60.8185 33.3832 61.0433 34.0915 61.371 34.7538C61.6319 35.3201 61.9151 35.8801 62.5199 36.1333C62.6 36.1549 62.6853 36.144 62.7574 36.1031C62.8296 36.0622 62.8826 35.9944 62.9051 35.9146C62.9251 35.8346 62.9136 35.75 62.8728 35.6783C62.8321 35.6066 62.7654 35.5533 62.6864 35.5295C62.2636 35.3524 62.0613 34.7655 61.8873 34.3843C61.6171 33.838 61.4295 33.2546 61.3305 32.6532C61.3279 32.5709 61.2941 32.4928 61.2359 32.4346C61.1778 32.3765 61.0996 32.3426 61.0174 32.34C60.9345 32.3405 60.8551 32.3736 60.7965 32.4322C60.7378 32.4909 60.7047 32.5703 60.7043 32.6532Z" fill="#211715"/>
<path d="M52.4784 36.5266C52.3004 36.3661 52.0791 36.2615 51.842 36.2259C51.605 36.1904 51.3627 36.2253 51.1454 36.3266C50.9892 36.4066 50.8529 36.5207 50.7465 36.6605C50.6402 36.8002 50.5666 36.962 50.531 37.1339C50.4398 37.5369 50.4322 37.9542 50.5084 38.3603C50.5847 38.7663 50.7434 39.1524 50.9747 39.4947C51.2766 39.9434 51.7505 40.3466 52.3277 40.2725C52.4099 40.2699 52.4881 40.2361 52.5463 40.1779C52.6045 40.1198 52.6383 40.0416 52.6408 39.9594C52.6404 39.8764 52.6072 39.797 52.5486 39.7384C52.49 39.6798 52.4106 39.6467 52.3277 39.6462C51.8841 39.7032 51.5857 39.3331 51.3948 38.9777C51.2304 38.6819 51.1271 38.3561 51.091 38.0196C51.0634 37.6895 51.0664 37.2923 51.2618 37.0089C51.2227 37.0665 51.2814 36.9879 51.2929 36.9762C51.302 36.9669 51.3665 36.915 51.344 36.9305C51.4008 36.892 51.4648 36.8654 51.5322 36.8522C51.6194 36.8303 51.7106 36.8295 51.7982 36.8499C51.8858 36.8703 51.9673 36.9114 52.0358 36.9697C52.3341 37.2394 52.7783 36.7978 52.4786 36.5268L52.4784 36.5266Z" fill="#211715"/>
<path d="M60.3781 44.8293C60.6465 45.2513 61.1069 45.5229 61.5419 45.7452C62.054 46.007 62.5916 46.2149 63.1226 46.4348C63.2027 46.4564 63.288 46.4455 63.3601 46.4046C63.4322 46.3636 63.4853 46.2959 63.5078 46.2161C63.5278 46.1361 63.5162 46.0515 63.4755 45.9798C63.4348 45.9081 63.368 45.8548 63.2891 45.8309C62.8194 45.6368 62.3475 45.4515 61.893 45.2222C61.6778 45.1165 61.4706 44.9951 61.2733 44.8589C61.1983 44.8079 61.1284 44.7499 61.0645 44.6855C61.0332 44.6551 61.0037 44.6233 60.9747 44.5908C60.9583 44.5724 60.9372 44.5423 60.9634 44.5788C60.948 44.5574 60.9334 44.5355 60.9192 44.5135C60.8772 44.4418 60.8085 44.3897 60.7282 44.3686C60.6478 44.3476 60.5624 44.3593 60.4907 44.4012C60.419 44.4431 60.3668 44.5118 60.3458 44.5922C60.3247 44.6725 60.3364 44.758 60.3783 44.8297L60.3781 44.8293Z" fill="#211715"/>
<path d="M53.1567 45.8304C53.703 45.6722 54.2365 45.4727 54.7525 45.2337C54.9874 45.1152 55.2614 44.9753 55.3405 44.7065C55.3746 44.5639 55.4011 44.4195 55.4199 44.274L55.5056 43.7932C55.5254 43.7132 55.5138 43.6287 55.4731 43.5571C55.4324 43.4854 55.3658 43.4321 55.287 43.4081C55.2069 43.3867 55.1217 43.3977 55.0496 43.4386C54.9776 43.4795 54.9245 43.5471 54.9018 43.6267C54.8518 43.9071 54.8053 44.1878 54.7518 44.468C54.748 44.4923 54.7429 44.5163 54.7366 44.5401C54.7358 44.5401 54.7591 44.4978 54.7613 44.5034C54.7613 44.5047 54.6501 44.5724 54.6376 44.5802C54.5557 44.6311 54.471 44.6774 54.384 44.7188C54.1899 44.8101 53.9908 44.8902 53.7876 44.9589C53.5235 45.0531 53.2567 45.1396 52.9902 45.2265C52.9112 45.2501 52.8443 45.3034 52.8035 45.3751C52.7628 45.4469 52.7513 45.5316 52.7716 45.6116C52.7943 45.6913 52.8474 45.7588 52.9195 45.7997C52.9915 45.8406 53.0767 45.8516 53.1567 45.8304Z" fill="#211715"/>
<path d="M53.033 46.8151C53.6974 47.14 54.3888 47.4063 55.0995 47.611C55.7636 47.7872 56.445 47.8902 57.1315 47.9182C57.8902 47.9532 58.6504 47.9318 59.4059 47.8541C59.9402 47.8087 60.4683 47.7073 60.9814 47.5514C61.3844 47.4147 61.7735 47.24 62.1434 47.0295C62.4966 46.8352 62.181 46.2941 61.8273 46.4888C61.6805 46.5696 61.5329 46.6489 61.3819 46.7216C61.311 46.7556 61.2393 46.7885 61.1669 46.8196C61.2292 46.7928 61.1083 46.8429 61.0894 46.8502C61.0405 46.8693 60.9914 46.8875 60.942 46.905C60.5043 47.0552 60.0515 47.1567 59.5916 47.2077C58.2563 47.3674 56.8393 47.387 55.5247 47.0736C54.7739 46.883 54.0449 46.6153 53.3492 46.2748C53.2769 46.2351 53.1922 46.2247 53.1125 46.2456C53.0328 46.2665 52.9641 46.3171 52.9207 46.3872C52.8795 46.459 52.8682 46.5442 52.8892 46.6243C52.9102 46.7044 52.9619 46.7731 53.033 46.8155V46.8151Z" fill="#211715"/>
<path d="M59.3845 35.1642C59.8813 34.7876 60.2707 34.2875 60.5142 33.7136C60.7663 33.1242 60.8999 32.4909 60.9073 31.8499C60.9235 31.4468 60.2972 31.4475 60.281 31.8499C60.2747 32.1522 60.2422 32.4534 60.1841 32.7502C60.1353 32.9722 60.0648 33.189 59.9735 33.3972C59.7647 33.8567 59.486 34.3226 59.0685 34.6236C58.9985 34.6671 58.9479 34.7358 58.927 34.8155C58.9061 34.8952 58.9165 34.9799 58.9562 35.0521C58.9985 35.1233 59.0672 35.175 59.1473 35.1961C59.2275 35.2171 59.3127 35.2057 59.3845 35.1645V35.1642Z" fill="#211715"/>
<path d="M54.4592 34.9947C54.4441 35.1192 54.4703 35.2453 54.5338 35.3535C54.5973 35.4617 54.6945 35.5461 54.8106 35.5937C55.0243 35.6577 55.2482 35.6798 55.4703 35.6589C55.9136 35.6472 56.3494 35.5415 56.7489 35.3489C57.1581 35.1437 57.5125 34.8441 57.7828 34.4747C58.0672 34.1197 58.2924 33.721 58.4497 33.2942C58.6018 32.8167 58.699 32.3233 58.7393 31.8238C58.7388 31.7409 58.7057 31.6615 58.6471 31.6029C58.5885 31.5442 58.5091 31.5111 58.4262 31.5106C58.3437 31.5125 58.2652 31.5461 58.2069 31.6044C58.1485 31.6628 58.1149 31.7413 58.113 31.8238C58.0735 32.2746 57.9813 32.7193 57.8383 33.1487C57.6811 33.5567 57.45 33.9323 57.1567 34.2565C56.9458 34.497 56.6867 34.6905 56.3961 34.8244C56.1056 34.9583 55.7902 35.0296 55.4703 35.0337C55.37 35.0358 55.2679 35.0373 55.1676 35.0311C55.1284 35.032 55.0893 35.0286 55.0509 35.0209C55.0873 35.0359 55.0795 35.0724 55.0855 34.9948C55.0848 34.912 55.0516 34.8327 54.993 34.7742C54.9344 34.7156 54.8552 34.6824 54.7724 34.6817C54.6898 34.6832 54.6111 34.7167 54.5527 34.7751C54.4943 34.8335 54.4608 34.9121 54.4592 34.9947Z" fill="#211715"/>
<path d="M53.0282 36.1106C53.723 35.6469 54.5713 35.4773 55.2362 34.9723C55.9083 34.4619 56.2381 33.6843 56.4338 32.8857C56.5299 32.4942 55.926 32.3274 55.83 32.7192C55.6591 33.416 55.393 34.1022 54.7853 34.5303C54.4617 34.758 54.0952 34.8836 53.7345 35.0391C53.3784 35.1847 53.0362 35.3622 52.7122 35.5695C52.3784 35.7922 52.6917 36.3349 53.0282 36.1103V36.1106Z" fill="#211715"/>
<path d="M26.0487 43.0496C27.8422 44.6327 30.493 45.1846 32.799 44.6265C33.4877 44.4606 34.1454 44.1859 34.7476 43.8128C35.089 43.6002 34.775 43.0582 34.4314 43.2721C32.5221 44.4606 29.9946 44.4903 27.9729 43.556C27.4357 43.313 26.9365 42.9932 26.4911 42.6068C26.19 42.341 25.7455 42.7823 26.0483 43.0496H26.0487Z" fill="#211715"/>
<path d="M24.9963 29.7802C25.4541 28.3583 26.374 27.1302 27.6098 26.2911C28.7882 25.4822 30.199 25.0815 31.6266 25.1503C32.9484 25.1748 34.2322 25.5972 35.3103 26.3624L36.1562 27.056C37.2037 28.0655 38.1296 29.6165 38.1524 31.8614C38.1552 32.6038 38.0417 33.3422 37.8159 34.0495C37.7358 34.0254 37.6531 34.0107 37.5696 34.0056C37.4547 33.9968 37.3393 34.0109 37.2299 34.047C37.1205 34.0831 37.0193 34.1405 36.9322 34.2159L36.0711 33.4869C35.8086 32.7594 35.1895 31.9449 34.5357 31.3447C34.243 31.065 33.9049 30.8369 33.536 30.6703L32.4327 30.4986C31.6759 30.7894 30.6007 31.4166 29.999 31.7261C29.9648 31.7417 29.927 31.7475 29.8897 31.7429C29.8524 31.7383 29.8172 31.7234 29.7879 31.6999C29.7586 31.6764 29.7364 31.6452 29.7238 31.6098C29.7112 31.5745 29.7087 31.5363 29.7166 31.4996C29.7362 31.37 29.7317 31.238 29.7036 31.1101C29.6694 30.9466 29.547 30.8737 29.4481 30.9214C28.6061 31.3293 27.3899 32.4144 26.6972 33.1377L25.7822 33.8574C25.7 33.7766 25.6027 33.713 25.4958 33.6701C25.3889 33.6271 25.2746 33.6058 25.1594 33.6074C25.0672 33.6068 24.9754 33.6184 24.8862 33.6417C24.7072 32.9184 24.6391 32.1722 24.6841 31.4284C24.7237 30.8687 24.8285 30.3156 24.9963 29.7802Z" fill="#85807F"/>
<path d="M26.0036 33.6362C25.8203 33.4638 25.5896 33.3503 25.3411 33.3104C25.0927 33.2705 24.838 33.3059 24.61 33.4123C24.4528 33.4942 24.3153 33.6093 24.2069 33.7494C24.0985 33.8896 24.0218 34.0517 23.982 34.2243C23.7521 35.0253 23.9325 35.9527 24.3642 36.6563C24.6626 37.1429 25.1517 37.5799 25.761 37.5191C25.8434 37.5168 25.9217 37.4831 25.98 37.4249C26.0382 37.3666 26.0719 37.2883 26.0742 37.2059C26.0736 37.1231 26.0404 37.0437 25.9818 36.9851C25.9232 36.9265 25.8439 36.8934 25.761 36.8928C25.2856 36.9402 24.9793 36.5164 24.7917 36.1337C24.6331 35.8184 24.5393 35.4745 24.5156 35.1224C24.4984 34.7832 24.5156 34.3713 24.7287 34.0884C24.6843 34.1475 24.7613 34.0573 24.7715 34.0477C24.8125 34.0085 24.7557 34.0521 24.8106 34.0151C24.8784 33.9692 24.9557 33.9393 25.0368 33.9276C25.1298 33.9101 25.2257 33.9147 25.3167 33.941C25.4076 33.9673 25.4911 34.0146 25.5605 34.0791C25.8517 34.3577 26.2952 33.9155 26.0033 33.6362H26.0036Z" fill="#211715"/>
<path d="M37.1536 34.4374C37.2291 34.38 37.317 34.3412 37.4103 34.3242C37.5036 34.3072 37.5996 34.3125 37.6904 34.3395C37.7997 34.3607 37.8973 34.4215 37.9644 34.5103C38.1633 34.8013 38.157 35.2266 38.1163 35.5634C38.0666 35.9183 37.9469 36.2598 37.764 36.568C37.5813 36.8859 37.2421 37.3264 36.8217 37.2568C36.7417 37.2372 36.6573 37.249 36.5857 37.2896C36.5141 37.3303 36.4607 37.3968 36.4366 37.4755C36.4151 37.5555 36.426 37.6408 36.4669 37.7129C36.5079 37.785 36.5755 37.838 36.6552 37.8606C37.6835 38.0303 38.3093 37.0435 38.6083 36.2036C38.8574 35.504 38.8953 34.39 38.2246 33.9051C37.9972 33.7525 37.7261 33.6786 37.4528 33.6947C37.1794 33.7108 36.9189 33.816 36.7111 33.9943C36.6528 34.0534 36.62 34.1331 36.62 34.2161C36.62 34.2991 36.6528 34.3788 36.7111 34.4379C36.7706 34.495 36.85 34.5269 36.9325 34.5269C37.015 34.5269 37.0943 34.495 37.1539 34.4379L37.1536 34.4374Z" fill="#211715"/>
<path d="M36.4838 37.0552C36.4265 37.2866 36.3539 37.5139 36.2664 37.7355C36.2354 37.8159 36.2033 37.8955 36.1671 37.9737C36.1523 38.006 36.1352 38.0375 36.1204 38.0698C36.0239 38.2822 36.1427 38.0316 36.0943 38.1292C35.9796 38.3622 35.8507 38.588 35.7082 38.8052C35.3005 39.4545 34.7858 40.0301 34.186 40.5077C33.8499 40.7785 33.456 40.9684 33.0348 41.0628C32.9952 41.0737 32.9581 41.0923 32.9256 41.1176C32.8932 41.1429 32.866 41.1743 32.8457 41.2101C32.8254 41.2458 32.8124 41.2852 32.8073 41.326C32.8022 41.3669 32.8052 41.4083 32.8162 41.4479C32.8271 41.4876 32.8457 41.5247 32.871 41.5571C32.8963 41.5896 32.9277 41.6167 32.9634 41.637C32.9992 41.6573 33.0386 41.6704 33.0794 41.6755C33.1202 41.6805 33.1617 41.6775 33.2013 41.6666C34.0589 41.497 34.7892 40.892 35.3651 40.2633C35.8583 39.7416 36.275 39.1526 36.6028 38.5138C36.6152 38.4885 36.6272 38.4632 36.6387 38.4375C36.654 38.4069 36.6678 38.3755 36.6798 38.3434C36.6563 38.3897 36.6878 38.3304 36.6928 38.3202C36.7059 38.2941 36.7176 38.2668 36.7295 38.2399C36.7571 38.1777 36.7835 38.1148 36.8096 38.0519C36.9238 37.7828 37.0168 37.5051 37.0878 37.2215C37.1817 36.83 36.5779 36.6626 36.4838 37.055V37.0552Z" fill="#211715"/>
<path d="M25.4232 36.8465C25.5851 37.6891 25.9003 38.4948 26.3531 39.2236C26.8359 39.9955 27.4801 40.7204 28.2686 41.1893C28.6714 41.4288 29.1138 41.5944 29.5749 41.6783C29.6549 41.6981 29.7395 41.6864 29.8111 41.6457C29.8828 41.605 29.9361 41.5384 29.9601 41.4595C29.9814 41.3795 29.9704 41.2942 29.9295 41.2222C29.8886 41.1502 29.8211 41.0971 29.7414 41.0744C28.7318 40.8917 27.9476 40.2785 27.3125 39.4956C26.6597 38.6766 26.2183 37.7097 26.027 36.68C26.0043 36.6003 25.9512 36.5328 25.8792 36.4919C25.8071 36.451 25.7219 36.44 25.6419 36.4613C25.5627 36.4848 25.4957 36.538 25.4549 36.6098C25.4142 36.6816 25.4028 36.7665 25.4232 36.8465Z" fill="#211715"/>
<path d="M35.4683 26.092C34.4891 25.4214 33.3597 25.0024 32.1801 24.872C31.0004 24.7416 29.8068 24.9038 28.7048 25.3443C27.8056 25.7199 26.9935 26.2767 26.319 26.98C25.6446 27.6833 25.1223 28.5181 24.7847 29.4322C24.3121 30.7794 24.2345 32.2337 24.561 33.6236C24.6483 34.0168 25.2526 33.8503 25.1649 33.4569C24.7069 31.394 25.1664 29.1852 26.5966 27.5972C27.6617 26.4238 29.1179 25.6786 30.6927 25.5011C32.2675 25.3237 33.853 25.726 35.1526 26.633C35.2244 26.6742 35.3096 26.6855 35.3897 26.6645C35.4699 26.6435 35.5385 26.5918 35.5809 26.5207C35.6212 26.4486 35.632 26.3637 35.611 26.2839C35.5901 26.204 35.539 26.1353 35.4686 26.0923L35.4683 26.092Z" fill="#211715"/>
<path d="M38.1441 34.0403C38.309 33.479 38.4133 32.9016 38.455 32.318C38.4848 31.7388 38.4513 31.1581 38.3552 30.5861C38.2076 29.6467 37.8576 28.7505 37.3294 27.9598C37.0673 27.5739 36.7663 27.216 36.4311 26.8916C36.1414 26.6111 35.6981 27.0534 35.9882 27.3344C36.548 27.8724 36.998 28.5139 37.3133 29.2234C37.691 30.1217 37.8701 31.091 37.8382 32.0649C37.8163 32.6781 37.7161 33.2861 37.5401 33.8739C37.4317 34.2627 38.0359 34.4287 38.1441 34.0404V34.0403Z" fill="#211715"/>
<path d="M33.3772 30.9406C33.9117 31.2078 34.3872 31.5793 34.7757 32.0333C35.2 32.4788 35.5368 33.0002 35.7684 33.5702C35.7923 33.649 35.8456 33.7157 35.9173 33.7564C35.989 33.7971 36.0736 33.8087 36.1536 33.7888C36.2333 33.7662 36.3009 33.7131 36.3418 33.641C36.3827 33.569 36.3936 33.4837 36.3722 33.4037C36.1126 32.7469 35.7325 32.1445 35.2516 31.6274C34.8199 31.1176 34.2899 30.7001 33.6932 30.3998C33.621 30.3601 33.5363 30.3496 33.4566 30.3705C33.3769 30.3914 33.3083 30.4421 33.2649 30.5121C33.2236 30.584 33.2123 30.6692 33.2333 30.7493C33.2543 30.8295 33.306 30.8982 33.3772 30.9406Z" fill="#211715"/>
<path d="M26.9186 33.3595C27.5974 32.6253 28.3619 31.9753 29.1957 31.4235C29.285 31.3672 29.3758 31.313 29.4686 31.2627C29.4924 31.2517 29.5157 31.2394 29.5382 31.2259C29.5816 31.1951 29.5692 31.2322 29.541 31.2143C29.5279 31.2062 29.3313 31.2873 29.4046 31.1809C29.3938 31.1966 29.4109 31.2331 29.4125 31.2509C29.4224 31.3637 29.3969 31.4749 29.4071 31.5864C29.4135 31.6607 29.4358 31.7327 29.4726 31.7974C29.5095 31.8622 29.5599 31.9183 29.6204 31.9617C29.8747 32.1432 30.1162 32.0192 30.3572 31.8908C30.566 31.7799 30.7725 31.6666 30.9801 31.5546C31.4758 31.2719 31.9885 31.0201 32.5151 30.8005C32.5939 30.7763 32.6604 30.723 32.7011 30.6514C32.7418 30.5798 32.7535 30.4953 32.7338 30.4153C32.7112 30.3355 32.6582 30.2679 32.5861 30.227C32.514 30.186 32.4287 30.1751 32.3487 30.1966C31.8554 30.3968 31.3744 30.626 30.9082 30.8829C30.6809 31.0039 30.4548 31.1274 30.2282 31.2497C30.137 31.2989 30.0457 31.3478 29.9542 31.3962C29.8819 31.4343 29.8412 31.4237 29.9385 31.4547C30.0359 31.4856 30.0308 31.5373 30.0394 31.4136C30.0587 31.1346 29.9954 30.795 29.7293 30.6498C29.4776 30.5124 29.2256 30.6759 29.0093 30.8035C28.56 31.0802 28.1341 31.3933 27.736 31.7396C27.2954 32.1093 26.8748 32.5022 26.4759 32.9166C26.1967 33.2075 26.6388 33.6509 26.9186 33.3595Z" fill="#211715"/>
<path d="M26.407 43.0407C26.687 42.9337 26.9669 42.8264 27.2469 42.7189C27.4229 42.6605 27.5951 42.5912 27.7625 42.5113C28.3514 42.1951 28.448 41.4414 28.5212 40.8453C28.5212 40.8042 28.5131 40.7635 28.4974 40.7255C28.4816 40.6875 28.4586 40.653 28.4295 40.6239C28.4004 40.5948 28.3659 40.5717 28.3279 40.556C28.2899 40.5403 28.2492 40.5322 28.2081 40.5322C28.1258 40.5346 28.0475 40.5683 27.9893 40.6265C27.9311 40.6847 27.8973 40.763 27.8949 40.8453C27.89 40.8851 27.8891 40.8926 27.8923 40.8679C27.8891 40.8913 27.8856 40.9145 27.8819 40.9377C27.8765 40.9724 27.8706 41.007 27.8645 41.0421C27.85 41.1237 27.8337 41.2052 27.8162 41.2863C27.7931 41.4048 27.7622 41.5217 27.7236 41.6361C27.718 41.6516 27.7121 41.667 27.7061 41.6824C27.722 41.6455 27.7228 41.6431 27.7085 41.6753C27.6974 41.697 27.6872 41.7191 27.6755 41.7405C27.6618 41.7654 27.646 41.7889 27.6312 41.8132C27.591 41.8794 27.6552 41.7946 27.6136 41.837C27.5963 41.8547 27.5803 41.8736 27.5623 41.8907C27.5502 41.9023 27.5378 41.9134 27.5249 41.9242C27.5552 41.902 27.5557 41.9012 27.5268 41.9221C27.504 41.9363 27.4821 41.9513 27.4585 41.9645C27.4361 41.9742 27.4144 41.9851 27.3932 41.9973C27.4193 41.9876 27.3811 42.0007 27.3751 42.0029C27.3476 42.0125 27.3206 42.0235 27.2933 42.0338C27.2023 42.0686 27.1114 42.1034 27.0206 42.1382C26.7606 42.2379 26.5006 42.3375 26.2405 42.437C26.1615 42.4606 26.0946 42.5139 26.0538 42.5856C26.0131 42.6574 26.0016 42.7421 26.0217 42.8221C26.0446 42.9017 26.0977 42.9692 26.1697 43.0101C26.2417 43.051 26.3269 43.0621 26.407 43.0409V43.0407Z" fill="#211715"/>
<path d="M25.8843 42.5263C24.8759 42.8365 23.8913 43.2192 22.9382 43.6715C22.0538 44.089 21.1701 44.5662 20.4238 45.2056C19.6436 45.8742 19.1321 46.8247 18.7951 47.7817C18.413 48.8658 18.2491 50.0172 18.1264 51.1562C17.9704 52.4275 17.9604 53.7125 18.0967 54.9861C18.2306 56.0803 18.465 57.2597 19.1043 58.1827C19.3896 58.6151 19.7813 58.9669 20.2417 59.2042C20.7604 59.4507 21.3383 59.5453 21.9085 59.477C23.0867 59.3441 24.071 58.6793 24.8808 57.8461C25.6245 57.0783 26.2889 56.2376 26.864 55.3367C27.3589 54.5346 27.7878 53.6936 28.1465 52.8221C28.2608 52.5561 28.3732 52.2893 28.4838 52.0217C28.5054 51.9416 28.4945 51.8563 28.4536 51.7841C28.4127 51.712 28.3449 51.6589 28.2651 51.6364C28.1851 51.6165 28.1005 51.6281 28.0288 51.6688C27.9571 51.7096 27.9038 51.7763 27.8799 51.8552C27.5342 52.7268 27.1377 53.5775 26.6926 54.4028C26.2337 55.2043 25.7003 55.9608 25.0994 56.6622C24.4286 57.4594 23.6676 58.2893 22.6656 58.6601C21.7294 59.0067 20.6549 58.9508 19.9274 58.2073C19.2359 57.5 18.9709 56.4572 18.8031 55.5124C18.6115 54.3172 18.5714 53.1025 18.6838 51.8973C18.7511 50.797 18.9197 49.7053 19.1873 48.636C19.445 47.6728 19.8518 46.7016 20.5381 45.9613C21.1131 45.3412 21.8915 44.9063 22.6338 44.5198C23.5241 44.0598 24.4473 43.6664 25.3958 43.343C25.6133 43.2682 25.8316 43.1972 26.0509 43.1302C26.4353 43.0127 26.2714 42.4079 25.8844 42.5262L25.8843 42.5263Z" fill="#211715"/>
<path d="M44.3309 49.6059C44.3189 49.6176 44.2714 49.6556 44.3227 49.616C44.374 49.5765 44.3141 49.6206 44.2988 49.63C44.2795 49.6418 44.2597 49.6528 44.2394 49.663C44.2264 49.6697 44.2107 49.6749 44.1982 49.6824C44.1475 49.7097 44.1095 49.7557 44.0922 49.8106C44.0749 49.8656 44.0797 49.9251 44.1057 49.9765C44.1316 50.0279 44.1766 50.0671 44.2311 50.0858C44.2855 50.1046 44.3451 50.1013 44.3972 50.0767C44.4492 50.0521 44.4897 50.0082 44.5098 49.9543C44.53 49.9003 44.5282 49.8406 44.505 49.788C44.4818 49.7353 44.439 49.6937 44.3856 49.6721C44.3322 49.6506 44.2725 49.6507 44.2192 49.6725C44.1547 49.6954 44.0886 49.7135 44.0214 49.7267C44.0049 49.7298 43.9335 49.7498 44.0144 49.7294C43.9943 49.7331 43.9739 49.7352 43.9534 49.7357C43.905 49.7397 43.8565 49.7415 43.808 49.7417C43.7636 49.7417 43.7192 49.7401 43.6751 49.7367C43.6509 49.7324 43.6264 49.7299 43.6018 49.7294C43.6139 49.7195 43.6671 49.7397 43.6057 49.7286C43.5374 49.7168 43.4703 49.699 43.4051 49.6757C43.3796 49.6664 43.3398 49.6391 43.4181 49.6824C43.407 49.6763 43.3948 49.6719 43.3834 49.6663C43.3608 49.6552 43.3388 49.6432 43.3174 49.63C43.3011 49.6199 43.2861 49.6074 43.2696 49.5978C43.3587 49.65 43.3112 49.6314 43.285 49.6059C43.2261 49.5479 43.1467 49.5156 43.0641 49.5159C42.9815 49.5163 42.9024 49.5492 42.844 49.6076C42.7856 49.6661 42.7526 49.7452 42.7523 49.8278C42.7519 49.9104 42.7843 49.9898 42.8422 50.0487C43.0901 50.291 43.4745 50.3681 43.8077 50.368C44.1409 50.3678 44.5253 50.2912 44.7732 50.0487C44.8312 49.9898 44.8635 49.9104 44.8631 49.8278C44.8628 49.7452 44.8298 49.6661 44.7714 49.6076C44.713 49.5492 44.6339 49.5163 44.5513 49.5159C44.4687 49.5156 44.3893 49.5479 44.3304 49.6059H44.3309Z" fill="#211715"/>
<path d="M43.6611 47.9971C43.7034 48.1499 43.7373 48.305 43.7626 48.4616L43.7513 48.3783C43.7544 48.3996 43.755 48.421 43.7532 48.4424L43.7643 48.3592C43.7629 48.369 43.7605 48.3786 43.7572 48.388L43.7888 48.3132C43.786 48.3197 43.7826 48.3259 43.7786 48.3318L43.8277 48.2683C43.8231 48.2739 43.818 48.2789 43.8124 48.2834L43.8758 48.2343C43.864 48.2417 43.8517 48.2482 43.839 48.2539L43.9138 48.2223C43.8939 48.2307 43.8731 48.2368 43.8518 48.2403L43.935 48.2292C43.9157 48.2314 43.8962 48.2314 43.8769 48.2292L43.9601 48.2404C43.9382 48.2373 43.9167 48.2319 43.8949 48.2291C43.8545 48.216 43.8114 48.2141 43.77 48.2235C43.7286 48.2252 43.6883 48.238 43.6535 48.2605C43.618 48.2813 43.5869 48.3088 43.562 48.3416C43.5371 48.3743 43.519 48.4117 43.5085 48.4515C43.4981 48.4913 43.4956 48.5327 43.5012 48.5735C43.5068 48.6142 43.5204 48.6535 43.5411 48.689C43.561 48.7243 43.5879 48.7553 43.6201 48.7799C43.6522 48.8046 43.6891 48.8225 43.7284 48.8325C43.7849 48.8402 43.8398 48.8543 43.898 48.8569C43.9877 48.8572 44.0762 48.8357 44.1558 48.7943C44.2074 48.77 44.253 48.7346 44.2893 48.6907C44.3257 48.6468 44.3519 48.5954 44.3661 48.5403C44.3851 48.4528 44.3843 48.3622 44.3639 48.275C44.3387 48.1253 44.3042 47.9771 44.2657 47.8303C44.2432 47.7521 44.1919 47.6853 44.1221 47.6432C44.0866 47.6225 44.0474 47.6089 44.0066 47.6033C43.9659 47.5977 43.9244 47.6002 43.8846 47.6106C43.8448 47.6211 43.8075 47.6392 43.7747 47.6641C43.742 47.689 43.7144 47.7201 43.6937 47.7556C43.6527 47.829 43.6414 47.9153 43.6621 47.9968L43.6611 47.9971Z" fill="#211715"/>
<path d="M41.3052 46.7564C41.2294 47.0029 41.2791 47.5697 41.7457 47.6176C42.3627 47.6139 42.3954 46.9285 42.1879 46.6064C42.0177 46.343 41.5177 46.2332 41.3052 46.7564Z" fill="#211715"/>
<path d="M46.2258 46.7564C46.3017 47.0029 46.2519 47.5697 45.7854 47.6176C45.1684 47.6139 45.1355 46.9285 45.3433 46.6063C45.5133 46.3428 46.0129 46.2332 46.2258 46.7564Z" fill="#211715"/>
<path d="M58.4297 52.4113L58.2307 51.7389C58.2307 51.7389 58.2046 51.6487 58.1582 51.4937C58.076 51.5514 57.9899 51.6047 57.8972 51.6598C57.5888 51.8932 57.3283 52.184 57.1303 52.5162C57.1292 52.5183 57.1282 52.5204 57.1273 52.5226C56.3723 52.1973 55.3612 51.7479 54.6946 51.3272C54.8172 50.9486 54.9202 50.564 55.0031 50.1747C55.13 49.6992 55.1878 49.3932 55.326 49.017C55.6138 48.2334 56.1416 47.2983 56.4238 46.623C56.7304 45.8709 57.7938 43.4313 58.0468 42.8957C58.1009 42.7622 58.2 42.6518 58.3269 42.5835C58.4538 42.5153 58.6006 42.4935 58.7418 42.522C58.9636 42.5673 59.1593 42.8667 59.2137 43.0396L59.292 43.2863C59.3979 43.2604 59.5092 43.2678 59.6108 43.3075C59.873 43.4072 59.9145 43.6371 59.9078 43.883C59.8679 44.2597 59.8025 44.6332 59.7121 45.001L60.1727 44.6156C60.3147 44.5481 60.4764 44.5346 60.6275 44.5778C60.7383 44.5956 60.8414 44.6457 60.9239 44.7218C61.0064 44.7978 61.0646 44.8965 61.0914 45.0055C61.1464 45.3794 61.1456 45.7595 61.0889 46.1332C60.9041 47.2522 60.7712 48.2223 60.5999 49.3093C60.4776 49.9054 60.6399 50.349 60.8376 50.7432L61.5273 52.0761L61.5664 52.1512C60.6459 52.5483 59.555 53.0159 58.7128 53.3687C58.7083 53.3515 58.7054 53.3426 58.7054 53.3426L58.4297 52.4113Z" fill="white"/>
<path d="M59.5154 42.9564C59.3807 42.5693 59.075 42.212 58.6412 42.1974C58.4541 42.1963 58.2707 42.2502 58.114 42.3526C57.9573 42.4549 57.8341 42.601 57.7598 42.7728C57.5217 43.2742 57.3051 43.787 57.0829 44.2957C56.8108 44.9186 56.5404 45.5421 56.2765 46.1684C55.9787 46.8744 55.6241 47.5514 55.3089 48.2493C55.0965 48.7158 54.9268 49.2005 54.802 49.6976C54.6715 50.2166 54.5596 50.7414 54.3907 51.2495C54.2635 51.6328 54.8681 51.7974 54.9947 51.4159C55.263 50.608 55.3702 49.7512 55.6822 48.9575C55.9901 48.1747 56.4197 47.4455 56.7412 46.668C56.9291 46.2138 57.1376 45.7309 57.3545 45.2311C57.6006 44.663 57.8494 44.0961 58.1008 43.5303C58.1838 43.3444 58.2594 43.0751 58.3981 42.9226C58.4363 42.8761 58.4892 42.8439 58.548 42.8312C58.6394 42.8063 58.5049 42.8273 58.595 42.8233C58.6198 42.8222 58.7184 42.8444 58.6588 42.8233C58.7781 42.8872 58.8686 42.9941 58.9121 43.1222C58.9358 43.2012 58.9891 43.268 59.0608 43.3087C59.1326 43.3494 59.2172 43.361 59.2972 43.3409C59.3769 43.3182 59.4444 43.2651 59.4853 43.193C59.5262 43.121 59.5372 43.0358 59.5159 42.9557L59.5154 42.9564Z" fill="#211715"/>
<path d="M59.1228 47.4592C59.2912 46.8875 59.5116 46.3325 59.7813 45.8011C59.8047 45.7581 59.8303 45.7163 59.858 45.6758C59.7879 45.7766 59.8765 45.6542 59.862 45.6603C59.984 45.6081 59.9463 45.8889 59.9394 45.9446C59.8913 46.2586 59.8238 46.5694 59.7373 46.875C59.5677 47.5455 59.3664 48.2082 59.2088 48.8816C59.0412 49.5979 58.8173 50.3459 58.3294 50.9162C58.1025 51.1809 57.8142 51.3087 57.55 51.5309C57.2704 51.7612 57.0362 52.0418 56.8597 52.3582C56.6731 52.7151 57.2134 53.032 57.4004 52.6744C57.5538 52.3959 57.7624 52.1517 58.0136 51.9568C58.1107 51.8858 58.2804 51.793 58.3976 51.7045C58.5466 51.5943 58.6821 51.4668 58.8012 51.3247C59.3622 50.6447 59.6261 49.8204 59.8289 48.9787C60.0103 48.2262 60.2392 47.486 60.416 46.7324C60.5059 46.3504 60.6403 45.9053 60.5298 45.5168C60.4962 45.4045 60.4335 45.3031 60.3483 45.2226C60.263 45.1422 60.1581 45.0856 60.044 45.0586C59.9299 45.0316 59.8108 45.035 59.6985 45.0686C59.5862 45.1022 59.4847 45.1647 59.4042 45.25C59.1731 45.5 59.0538 45.8676 58.9285 46.1763C58.7792 46.5438 58.6423 46.9162 58.518 47.2936C58.3915 47.6773 58.9961 47.8416 59.1219 47.4601L59.1228 47.4592Z" fill="#211715"/>
<path d="M57.9113 47.0425C58.2266 46.2474 58.5383 45.4508 58.8562 44.6568C58.9277 44.4782 58.9998 44.2998 59.0724 44.1219C59.1001 44.054 59.128 43.9863 59.1561 43.9186C59.1608 43.9072 59.1999 43.8142 59.1835 43.8534C59.167 43.8925 59.2026 43.8086 59.2096 43.7935C59.2551 43.6891 59.2971 43.5771 59.4314 43.5833C59.6207 43.592 59.6027 43.783 59.5928 43.9311C59.5697 44.1484 59.5334 44.3641 59.4841 44.577C59.4232 44.8763 59.3556 45.1742 59.2814 45.4706C59.1842 45.862 59.7881 46.0286 59.8854 45.6371C60.0396 45.0868 60.1504 44.5252 60.2168 43.9576C60.2362 43.8249 60.228 43.6896 60.1926 43.5603C60.1572 43.4309 60.0954 43.3103 60.0112 43.2059C59.8893 43.0834 59.7324 43.0016 59.562 42.972C59.3917 42.9424 59.2164 42.9664 59.0603 43.0406C58.6963 43.2118 58.5843 43.6707 58.4443 44.0146C58.2602 44.4672 58.0803 44.9214 57.9005 45.3756C57.7027 45.8756 57.5051 46.3757 57.3078 46.8761C57.2863 46.9561 57.2972 47.0414 57.3382 47.1135C57.3791 47.1856 57.4468 47.2387 57.5266 47.2612C57.6066 47.2813 57.6912 47.2698 57.763 47.2291C57.8347 47.1884 57.888 47.1216 57.9117 47.0425H57.9113Z" fill="#211715"/>
<path d="M60.331 44.8861C60.3701 44.8691 60.4131 44.8633 60.4553 44.8694C60.5157 44.8706 60.5754 44.8825 60.6317 44.9043C60.6757 44.9219 60.7142 44.951 60.7432 44.9885C60.7721 45.0261 60.7905 45.0707 60.7962 45.1178C60.8115 45.2194 60.8191 45.3219 60.8189 45.4247C60.8214 45.5747 60.8165 45.7248 60.8051 45.8747C60.7812 46.1869 60.704 46.5602 60.6499 46.9104C60.5922 47.2838 60.5365 47.6575 60.4802 48.0312C60.422 48.4192 60.3676 48.8083 60.3025 49.1952C60.227 49.562 60.2351 49.941 60.326 50.3043C60.4427 50.6564 60.5954 50.9955 60.7818 51.3162L61.2567 52.234C61.442 52.5921 61.9826 52.2757 61.7975 51.918L61.3577 51.0679C61.187 50.738 60.988 50.4087 60.906 50.0428C60.8229 49.6733 60.9162 49.3037 60.9724 48.9372C61.0341 48.5344 61.0939 48.1312 61.1544 47.7283C61.2177 47.3077 61.2819 46.8872 61.3501 46.4673C61.407 46.1528 61.439 45.8343 61.4459 45.5148C61.4472 45.1719 61.4313 44.7863 61.1745 44.5274C60.9045 44.2551 60.3525 44.1238 60.015 44.3447C59.6774 44.5656 59.9925 45.1072 60.3311 44.8855L60.331 44.8861Z" fill="#211715"/>
<path d="M57.9288 51.8216L58.3429 53.2215L58.4032 53.4249C58.4141 53.4645 58.4328 53.5016 58.4581 53.5341C58.4833 53.5665 58.5147 53.5937 58.5505 53.614C58.5863 53.6343 58.6257 53.6474 58.6665 53.6525C58.7074 53.6576 58.7488 53.6545 58.7884 53.6436C58.8281 53.6327 58.8652 53.614 58.8977 53.5888C58.9301 53.5635 58.9573 53.5321 58.9776 53.4963C58.9979 53.4605 59.011 53.4211 59.016 53.3803C59.0211 53.3395 59.0181 53.298 59.0072 53.2584L58.5929 51.8587L58.5326 51.6551C58.5106 51.575 58.4576 51.507 58.3853 51.466C58.3131 51.425 58.2276 51.4144 58.1475 51.4364C58.0674 51.4585 57.9994 51.5115 57.9584 51.5837C57.9174 51.656 57.9067 51.7415 57.9288 51.8216Z" fill="#211715"/>
<path d="M54.302 51.4406C54.7375 51.7359 55.1974 51.9935 55.6768 52.2104C56.1687 52.4468 56.6693 52.6646 57.1709 52.8796C57.2432 52.9189 57.3278 52.9291 57.4074 52.9082C57.487 52.8874 57.5556 52.837 57.5994 52.7673C57.6407 52.6954 57.6521 52.6102 57.6311 52.53C57.61 52.4499 57.5583 52.3812 57.487 52.3389C56.9855 52.1239 56.4848 51.906 55.9928 51.6697C55.5135 51.4526 55.0536 51.1951 54.618 50.8999C54.5462 50.8586 54.461 50.8473 54.3808 50.8683C54.3007 50.8893 54.232 50.941 54.1897 51.0122C54.1495 51.0843 54.1387 51.1692 54.1597 51.249C54.1806 51.3289 54.2316 51.3975 54.302 51.4406Z" fill="#211715"/>
<path d="M25.7686 47.3275C25.7279 47.3014 25.6887 47.2755 25.6512 47.2499L25.6885 47.0946C25.8853 45.8877 26.1648 44.6957 26.5252 43.5271C26.7377 42.8598 26.9606 42.057 27.3982 41.6287C27.7101 41.2883 28.0793 41.0053 28.489 40.7924C29.3379 40.3773 30.2322 40.0624 31.1539 39.8539C31.406 39.8021 31.6679 39.828 31.9049 39.9283C31.9842 39.9734 32.0476 40.0419 32.0865 40.1244C32.1255 40.2068 32.138 40.2993 32.1226 40.3892C32.0942 40.5979 31.7318 40.8335 31.4327 40.9545C30.7203 41.2428 30.0872 41.5651 29.4087 41.8818L29.3549 41.9068C29.925 41.9721 30.6293 42.0721 31.0618 42.1273C31.255 42.1519 31.6702 42.3266 31.6288 42.7977C31.5988 43.1386 31.4006 43.4139 30.8558 43.3821C31.002 43.4511 31.1029 43.4995 31.1029 43.4995C31.2276 43.5524 31.3293 43.6481 31.3898 43.7693C31.4502 43.8905 31.4655 44.0293 31.4327 44.1608C31.3805 44.4609 31.0448 44.5498 30.8335 44.5339L30.8115 44.5324L30.9368 44.66C31.0283 44.7853 31.0732 44.9386 31.0636 45.0935C31.0602 45.324 30.881 45.5167 30.5922 45.5763C30.3508 45.6261 30.1172 45.6676 29.7572 45.7222C29.7435 46.218 29.7152 46.5846 29.5731 46.94C29.3812 47.4198 29.1339 47.7059 28.738 47.8114C28.738 47.8114 28.4954 48.2949 28.2634 48.758C27.5638 48.4 26.4729 47.7859 25.7686 47.3275Z" fill="white"/>
<path d="M28.9258 42.176C29.3022 42.209 29.6771 42.2574 30.0517 42.3065C30.2465 42.3319 30.4413 42.358 30.6361 42.3848L30.8872 42.4183C30.9251 42.4233 30.9629 42.4283 31.0009 42.4332C31.0675 42.4416 30.9596 42.4179 31.0324 42.4394C31.0563 42.4466 31.0806 42.4525 31.1046 42.46C31.1698 42.4787 31.0845 42.4416 31.1307 42.4704C31.1568 42.4867 31.1842 42.5001 31.21 42.5165C31.2392 42.5352 31.2054 42.5113 31.2013 42.5081C31.2197 42.5229 31.2356 42.5395 31.2527 42.5556C31.3012 42.6014 31.2565 42.5539 31.2832 42.5953C31.2873 42.6016 31.3113 42.6475 31.2918 42.6032C31.2977 42.6181 31.3027 42.6333 31.3068 42.6488C31.3175 42.6711 31.3215 42.6959 31.3184 42.7203C31.3184 42.7496 31.3021 42.862 31.3165 42.7945C31.3102 42.8242 31.3021 42.8534 31.2956 42.883C31.2812 42.9492 31.3113 42.8723 31.2857 42.9141C31.2772 42.9279 31.237 42.9936 31.2571 42.9663C31.284 42.9303 31.1929 43.0271 31.225 43.0005C31.2475 42.9819 31.1838 43.0257 31.1672 43.0344C31.1568 43.04 31.115 43.0536 31.1624 43.0369C31.148 43.0425 31.1332 43.047 31.1182 43.0506C31.0456 43.068 30.9709 43.075 30.8963 43.0712C30.6657 43.0645 30.4328 43.0259 30.2033 43.0027C29.9571 42.9776 29.7109 42.953 29.4652 42.9244C29.3823 42.9248 29.3029 42.958 29.2442 43.0166C29.1856 43.0752 29.1525 43.1546 29.152 43.2375C29.1539 43.32 29.1875 43.3986 29.2458 43.4569C29.3042 43.5152 29.3827 43.5488 29.4652 43.5507C29.7109 43.579 29.9571 43.6037 30.2033 43.629C30.4456 43.6535 30.6936 43.6979 30.9373 43.6981C31.367 43.6981 31.7498 43.4937 31.8911 43.0737C31.9623 42.8739 31.9638 42.656 31.8954 42.4552C31.827 42.2545 31.6926 42.0829 31.5143 41.9682C31.3673 41.8799 31.2023 41.8261 31.0315 41.8105C30.8282 41.7844 30.625 41.7574 30.4217 41.7295C29.9242 41.663 29.426 41.5938 28.9258 41.55C28.8429 41.5506 28.7637 41.5838 28.7051 41.6424C28.6465 41.701 28.6133 41.7803 28.6127 41.8631C28.6143 41.9457 28.6479 42.0243 28.7062 42.0827C28.7646 42.1411 28.8433 42.1746 28.9258 42.1763V42.176Z" fill="#211715"/>
<path d="M30.9445 43.7693C30.9741 43.784 31.0015 43.8016 31.0305 43.8174C31.059 43.8374 31.0571 43.8352 31.0249 43.8107C31.0369 43.8207 31.0486 43.8312 31.0598 43.842C31.0711 43.8528 31.0816 43.8642 31.0919 43.8758C31.0675 43.8424 31.0652 43.8398 31.0851 43.8679C31.0966 43.8882 31.1085 43.9082 31.1197 43.9288C31.0819 43.8588 31.1215 43.9485 31.1277 43.9679C31.1343 44.0032 31.1346 44.0008 31.1286 43.9606C31.1303 43.9785 31.1312 43.9965 31.1315 44.0144C31.1315 44.0286 31.1184 44.137 31.1304 44.0769C31.1254 44.1015 31.119 44.1257 31.1111 44.1495C31.1276 44.1117 31.128 44.1081 31.1123 44.1386C31.0932 44.1673 31.0963 44.1645 31.1215 44.1304C31.1046 44.1478 31.0344 44.1956 31.1018 44.1555C31.0758 44.1711 31.0508 44.1856 31.0245 44.1999C31.0928 44.1626 31.0369 44.1939 31.016 44.1999C30.9879 44.2087 30.9594 44.2141 30.9307 44.2207C30.8746 44.2337 30.9997 44.2174 30.9098 44.2207C30.8706 44.2216 30.8314 44.2202 30.7924 44.2165C30.3482 44.1817 29.9043 44.1444 29.4605 44.1045C29.3775 44.1049 29.2981 44.138 29.2394 44.1966C29.1808 44.2553 29.1477 44.3347 29.1473 44.4177C29.1495 44.5001 29.1831 44.5785 29.2414 44.6368C29.2997 44.695 29.3781 44.7287 29.4605 44.7308C29.8767 44.7685 30.2931 44.8036 30.7098 44.8362C30.9209 44.8621 31.1351 44.8306 31.3298 44.7449C31.4646 44.6782 31.577 44.5735 31.6529 44.4436C31.7289 44.3137 31.7652 44.1645 31.7572 44.0142C31.7556 43.85 31.7083 43.6894 31.6204 43.5505C31.5326 43.4117 31.4078 43.3001 31.26 43.2283C31.1883 43.1864 31.1028 43.1747 31.0225 43.1957C30.9422 43.2168 30.8735 43.269 30.8316 43.3407C30.7897 43.4124 30.778 43.4978 30.799 43.5782C30.8201 43.6585 30.8723 43.7272 30.944 43.7691L30.9445 43.7693Z" fill="#211715"/>
<path d="M29.4414 45.7605C29.4379 45.8813 29.4335 46.002 29.425 46.1227C29.4215 46.1724 29.4174 46.2223 29.4119 46.2719C29.4092 46.298 29.4063 46.3252 29.4029 46.3518C29.4085 46.3072 29.4016 46.3589 29.3988 46.3773C29.3839 46.4719 29.3635 46.5656 29.3376 46.6578C29.3239 46.7056 29.3086 46.753 29.2915 46.7999C29.2826 46.8239 29.2734 46.8479 29.2636 46.8716C29.2409 46.9274 29.2936 46.8097 29.2505 46.902C29.2111 46.9887 29.1662 47.0728 29.1163 47.1539C29.1032 47.1736 29.091 47.193 29.0771 47.2122C29.0727 47.2186 29.0276 47.2774 29.053 47.2457C29.0784 47.214 29.0269 47.2753 29.0269 47.2748C29.0154 47.2879 29.0037 47.3009 28.9917 47.3126C28.9621 47.3427 28.9309 47.3711 28.8981 47.3977C28.9309 47.371 28.9181 47.3835 28.8913 47.4005C28.8737 47.4115 28.8566 47.423 28.8392 47.4336C28.8248 47.4419 28.8102 47.45 28.7954 47.4576C28.7947 47.4576 28.7238 47.4913 28.7641 47.4738C28.8044 47.4563 28.738 47.4832 28.7298 47.4859C28.7049 47.4944 28.6796 47.5018 28.6543 47.5089C28.6146 47.5198 28.5775 47.5384 28.5451 47.5637C28.5126 47.589 28.4855 47.6204 28.4652 47.6562C28.4449 47.6919 28.4318 47.7314 28.4267 47.7722C28.4217 47.813 28.4247 47.8544 28.4356 47.894C28.4465 47.9337 28.4652 47.9708 28.4904 48.0032C28.5157 48.0357 28.5471 48.0628 28.5829 48.0831C28.6187 48.1035 28.6581 48.1165 28.6989 48.1216C28.7397 48.1267 28.7811 48.1236 28.8208 48.1127C29.034 48.0473 29.2303 47.9359 29.3957 47.7863C29.5612 47.6367 29.6917 47.4526 29.7782 47.247C30 46.7735 30.0522 46.2781 30.0678 45.7605C30.0671 45.6777 30.0339 45.5984 29.9754 45.5399C29.9168 45.4813 29.8375 45.4481 29.7547 45.4474C29.6721 45.449 29.5934 45.4825 29.535 45.5409C29.4767 45.5993 29.443 45.678 29.4414 45.7605Z" fill="#211715"/>
<path d="M30.715 44.8803C30.7498 44.9179 30.6743 44.8115 30.715 44.8828L30.723 44.8975C30.737 44.927 30.7335 44.9176 30.7123 44.8692C30.7177 44.9069 30.7369 44.9455 30.7442 44.9836C30.7493 45.0097 30.7475 45.0631 30.7429 44.9641C30.7429 44.9788 30.746 44.9938 30.7472 45.0086C30.7492 45.0364 30.7505 45.0645 30.7498 45.0925C30.7489 45.1285 30.7326 45.1467 30.7556 45.0725C30.7502 45.0897 30.7485 45.1084 30.7434 45.1257C30.7413 45.1333 30.739 45.1407 30.7364 45.148C30.7249 45.1781 30.7295 45.1676 30.7501 45.1165C30.7418 45.1298 30.7343 45.1436 30.7275 45.1577C30.722 45.1667 30.7162 45.1756 30.71 45.1838C30.7418 45.1441 30.7499 45.1336 30.7344 45.1521C30.7205 45.1651 30.709 45.1805 30.6953 45.1936C30.6671 45.2197 30.6507 45.2121 30.7069 45.1876C30.6893 45.1978 30.6722 45.209 30.6559 45.2211C30.6428 45.2287 30.6079 45.239 30.5998 45.2505L30.6404 45.2336C30.6285 45.2383 30.6166 45.2428 30.6045 45.2467C30.5617 45.2605 30.5182 45.2715 30.474 45.2797C30.3996 45.2948 30.3251 45.3094 30.2505 45.3233C30.0643 45.3577 29.8773 45.3877 29.6895 45.416C29.6108 45.4377 29.5436 45.4892 29.5024 45.5596C29.4605 45.6313 29.4488 45.7167 29.4698 45.797C29.4909 45.8773 29.543 45.946 29.6147 45.9879C29.6891 46.0258 29.7743 46.0369 29.856 46.0195C30.0668 45.9876 30.2773 45.9542 30.4865 45.9135C30.7114 45.8863 30.9249 45.8 31.1055 45.6633C31.191 45.5903 31.2595 45.4995 31.3061 45.3972C31.3527 45.2949 31.3763 45.1836 31.3752 45.0712C31.3839 44.8399 31.306 44.6136 31.1566 44.4367C31.0976 44.3785 31.0181 44.3459 30.9352 44.3459C30.8524 44.3459 30.7728 44.3785 30.7138 44.4367C30.6567 44.4963 30.6248 44.5756 30.6248 44.6581C30.6248 44.7406 30.6567 44.82 30.7138 44.8795L30.715 44.8803Z" fill="#211715"/>
<path d="M29.5663 42.1521C30.0676 41.9172 30.5634 41.6718 31.0691 41.4475C31.5028 41.2546 32.091 41.0993 32.3487 40.6593C32.6118 40.2098 32.2899 39.682 31.8222 39.5643C31.3298 39.4404 30.8294 39.5964 30.3576 39.7339C29.8297 39.8907 29.3123 40.0809 28.8085 40.3031C28.3291 40.4988 27.8838 40.769 27.4889 41.1039C27.1373 41.4009 26.8561 41.7722 26.6656 42.1911C26.4835 42.6291 26.3263 43.0771 26.1948 43.5329C25.8538 44.6747 25.5836 45.8365 25.3859 47.0116C25.3661 47.0916 25.3778 47.1762 25.4185 47.2478C25.4592 47.3195 25.5259 47.3729 25.6047 47.3969C25.6848 47.4182 25.77 47.4073 25.8421 47.3663C25.9141 47.3254 25.9672 47.2578 25.9899 47.1781C26.1595 46.2507 26.3378 45.3246 26.5878 44.415C26.7065 43.9832 26.8405 43.5553 26.9792 43.1295C27.0854 42.754 27.242 42.3948 27.4449 42.0615C27.6922 41.7219 28.0055 41.4357 28.3662 41.2201C28.7586 40.9898 29.1727 40.7986 29.6026 40.6493C30.0578 40.4737 30.5238 40.3273 30.9977 40.211C31.192 40.1639 31.7127 40.0252 31.812 40.2874C31.833 40.3428 31.8069 40.347 31.7653 40.3917C31.688 40.4654 31.6001 40.527 31.5044 40.5744C31.2837 40.6968 31.0406 40.7795 30.8098 40.8811C30.2845 41.1129 29.7703 41.3685 29.2504 41.6118C29.1792 41.6542 29.1275 41.7228 29.1065 41.803C29.0855 41.8831 29.0968 41.9683 29.1381 42.0401C29.1812 42.1105 29.2499 42.1614 29.3297 42.1824C29.4095 42.2033 29.4943 42.1926 29.5664 42.1525L29.5663 42.1521Z" fill="#211715"/>
<path d="M25.0521 47.2008C25.5749 47.5938 26.1259 47.9476 26.7007 48.2596C27.2723 48.5892 27.8506 48.915 28.4476 49.1968C28.5198 49.2365 28.6045 49.2469 28.6842 49.226C28.7639 49.2051 28.8326 49.1545 28.8761 49.0845C28.9173 49.0126 28.9286 48.9274 28.9076 48.8473C28.8866 48.7671 28.8349 48.6984 28.7637 48.656C28.18 48.3806 27.6144 48.0626 27.0552 47.7409C26.748 47.5642 26.4431 47.3836 26.143 47.1952C26.0105 47.112 25.8787 47.0273 25.7493 46.9394C25.6982 46.9046 25.6476 46.8694 25.5975 46.8338C25.575 46.8176 25.5526 46.8011 25.5301 46.7846C25.4604 46.7339 25.5301 46.7861 25.495 46.7585C25.435 46.7021 25.3559 46.6707 25.2736 46.6707C25.1913 46.6707 25.1121 46.7021 25.0521 46.7585C24.9939 46.8175 24.9613 46.8971 24.9613 46.9799C24.9613 47.0628 24.9939 47.1424 25.0521 47.2014V47.2008Z" fill="#211715"/>
<path d="M63.9426 53.956C63.6852 53.3404 63.4271 52.7251 63.1756 52.107C63.0474 51.7923 62.9107 51.2832 62.4547 51.4286C62.2103 51.5069 61.9719 51.6373 61.736 51.739C60.6963 52.1883 59.656 52.6366 58.6112 53.0741C58.398 53.1634 58.1845 53.2519 57.9707 53.3396C57.8267 53.3772 57.6989 53.4608 57.6068 53.5777C57.5113 53.7297 57.5451 53.8909 57.5825 54.0546C57.723 54.6679 57.8726 55.2783 58.0443 55.8832C58.4292 57.239 58.8831 58.6503 59.7618 59.7736C60.16 60.3076 60.6936 60.7257 61.3074 60.9845C61.9351 61.2212 62.625 61.2351 63.2616 61.0237C63.9044 60.8216 64.4899 60.4695 64.9697 59.9964C65.4179 59.5318 65.7942 59.0029 66.0862 58.4272C67.4379 55.9481 68.0951 53.1499 67.9882 50.3283C67.9742 49.7393 67.8479 49.1585 67.6163 48.6168C67.4075 48.1426 67.1191 47.7077 66.7636 47.3308C66.0199 46.5349 65.0173 46.0141 63.9818 45.7071C63.7041 45.6248 63.4223 45.5587 63.1379 45.5044C63.0578 45.4845 62.9732 45.4962 62.9015 45.537C62.8298 45.5778 62.7765 45.6446 62.7527 45.7236C62.7314 45.8036 62.7423 45.8889 62.7832 45.961C62.8241 46.033 62.8917 46.0861 62.9714 46.1089C64.7084 46.4401 66.5121 47.3429 67.1426 49.1098C67.2166 49.3175 67.2747 49.5305 67.3164 49.747C67.3577 50.0254 67.3756 50.3068 67.3701 50.5882C67.3841 51.1983 67.3623 51.8086 67.3048 52.4161C67.129 54.209 66.6285 55.9549 65.8279 57.5686C65.5806 58.0983 65.2852 58.6042 64.9455 59.08C64.3085 59.9269 63.2682 60.6033 62.1747 60.5474C61.0332 60.4891 60.2151 59.4893 59.7113 58.5623C59.135 57.5016 58.7931 56.2953 58.4892 55.1327C58.4202 54.869 58.3544 54.6045 58.2917 54.3392C58.2645 54.2252 58.2378 54.1113 58.2115 53.9972C58.2057 53.938 58.1923 53.8798 58.1718 53.8239C58.1065 53.7215 58.1004 54.0305 58.0485 53.9796C58.0786 53.9691 58.1082 53.957 58.1372 53.9435C58.538 53.7797 58.937 53.6117 59.3358 53.4431C60.2631 53.0512 61.1884 52.6548 62.1118 52.254L62.4165 52.122L62.56 52.0601C62.5772 52.0526 62.5951 52.0458 62.6122 52.0375C62.7076 51.9908 62.6337 52.0636 62.5796 52.0413L62.4414 51.9608C62.4372 51.9364 62.4405 51.941 62.4512 51.9746L62.4852 52.0589L62.5402 52.1943C62.5783 52.2882 62.6165 52.3819 62.6548 52.4756C62.7261 52.6496 62.7978 52.8236 62.8699 52.9975C63.0256 53.3729 63.1821 53.7479 63.3396 54.1223C63.364 54.2009 63.4174 54.2673 63.4889 54.308C63.5605 54.3486 63.6449 54.3605 63.7249 54.3412C63.8047 54.3186 63.8724 54.2655 63.9133 54.1934C63.9542 54.1213 63.9651 54.0359 63.9435 53.9559L63.9426 53.956Z" fill="#211715"/>
<path d="M56.3856 41.0033C56.7155 41.1756 57.0833 41.2623 57.4554 41.2554C57.8441 41.2726 58.2273 41.1596 58.5445 40.9344C58.6032 40.8757 58.6362 40.796 58.6362 40.713C58.6362 40.6299 58.6032 40.5503 58.5445 40.4916C58.4846 40.4352 58.4054 40.4038 58.3231 40.4038C58.2408 40.4038 58.1616 40.4352 58.1017 40.4916C58.1992 40.4163 58.1318 40.4677 58.1069 40.4836C58.0859 40.4967 58.0641 40.5097 58.0417 40.5209C58.0096 40.5376 57.943 40.5487 58.0273 40.5303C57.9973 40.5368 57.967 40.5532 57.9376 40.5624C57.8556 40.5879 57.7717 40.6067 57.6866 40.6187C57.7335 40.6117 57.7027 40.6162 57.6736 40.6187C57.6491 40.621 57.6245 40.623 57.5998 40.6245C57.5404 40.628 57.481 40.6294 57.4215 40.6288C57.3683 40.6282 57.3152 40.6262 57.2621 40.6224C57.2377 40.6206 57.2134 40.6181 57.189 40.616C57.0977 40.6082 57.2503 40.6277 57.1645 40.6133C57.0855 40.6007 57.0073 40.583 56.9306 40.5603C56.8978 40.5504 56.8653 40.5385 56.8335 40.5273C56.7573 40.5012 56.8893 40.5551 56.8204 40.5221C56.7804 40.5029 56.7408 40.483 56.7017 40.4622C56.6662 40.4415 56.6269 40.4279 56.5862 40.4223C56.5454 40.4167 56.504 40.4192 56.4642 40.4296C56.4244 40.4401 56.3871 40.4582 56.3543 40.4831C56.3215 40.508 56.294 40.539 56.2732 40.5746C56.2525 40.6101 56.2389 40.6493 56.2333 40.6901C56.2277 40.7308 56.2302 40.7723 56.2406 40.8121C56.2511 40.8518 56.2692 40.8892 56.2941 40.922C56.319 40.9547 56.35 40.9823 56.3856 41.003V41.0033Z" fill="#211715"/>
<path d="M57.2873 38.5093C57.335 38.6841 57.373 38.8614 57.4012 39.0404L57.39 38.9572C57.3934 38.9815 57.394 39.006 57.3917 39.0304L57.4029 38.9472C57.4012 38.9584 57.3985 38.9694 57.3947 38.98L57.4262 38.9053C57.423 38.9127 57.4191 38.9197 57.4146 38.9264L57.4635 38.863C57.4584 38.8693 57.4526 38.875 57.4462 38.8801L57.5095 38.831C57.496 38.8394 57.482 38.8468 57.4675 38.8532L57.5422 38.8216C57.5194 38.8312 57.4956 38.838 57.4712 38.842L57.5545 38.8308C57.5324 38.8334 57.5101 38.8334 57.4881 38.8308L57.5713 38.842C57.5463 38.8383 57.5216 38.8322 57.4966 38.8289C57.4562 38.816 57.4131 38.814 57.3717 38.8233C57.3303 38.8252 57.2901 38.838 57.2553 38.8605C57.2198 38.8813 57.1887 38.9088 57.1638 38.9416C57.139 38.9743 57.1208 39.0117 57.1104 39.0515C57.0999 39.0913 57.0974 39.1327 57.103 39.1735C57.1086 39.2142 57.1222 39.2535 57.143 39.289C57.1628 39.3243 57.1897 39.3552 57.2218 39.3799C57.254 39.4046 57.2908 39.4225 57.3301 39.4325C57.3907 39.4409 57.4496 39.4561 57.5114 39.4586C57.6061 39.4592 57.6994 39.4368 57.7835 39.3934C57.8374 39.3685 57.8851 39.332 57.9232 39.2865C57.9613 39.241 57.9888 39.1875 58.0037 39.1301C58.0234 39.0379 58.0227 38.9426 58.0016 38.8507C57.9733 38.6797 57.9346 38.5102 57.8912 38.3419C57.8687 38.2637 57.8174 38.1968 57.7477 38.1548C57.694 38.1233 57.632 38.1086 57.5699 38.1125C57.5077 38.1164 57.4481 38.1388 57.3987 38.1767C57.3493 38.2147 57.3123 38.2665 57.2926 38.3256C57.2728 38.3847 57.2711 38.4483 57.2877 38.5084L57.2873 38.5093Z" fill="#211715"/>
<path d="M54.5268 36.9838C54.437 37.2708 54.4922 37.934 55.0376 37.9925C55.7586 37.991 55.8001 37.1903 55.5589 36.8129C55.3613 36.5039 54.7775 36.3734 54.5268 36.9838Z" fill="#211715"/>
<path d="M60.3007 37.0063C60.3883 37.2945 60.328 37.9567 59.7822 38.011C59.0612 38.0038 59.0255 37.2028 59.2701 36.8272C59.47 36.5196 60.0548 36.3937 60.3007 37.0063Z" fill="#211715"/>
<path d="M30.3276 38.4425C30.6598 38.6262 31.0323 38.7248 31.4119 38.7295C31.7727 38.7413 32.1967 38.6938 32.4983 38.4739C32.5686 38.4307 32.6194 38.362 32.6403 38.2822C32.6613 38.2024 32.6506 38.1176 32.6107 38.0455C32.5681 37.9744 32.4995 37.9229 32.4194 37.9019C32.3393 37.8809 32.2542 37.8921 32.1823 37.9331C32.1452 37.96 32.1059 37.9838 32.0649 38.0042C32.0533 38.0101 32.0409 38.0149 32.0294 38.0212C31.9974 38.0388 32.1004 37.9951 32.049 38.013C32.0153 38.0251 31.9819 38.0374 31.9475 38.0474C31.9083 38.0592 31.868 38.0689 31.8277 38.0773C31.8073 38.0815 31.787 38.0851 31.7666 38.0885C31.7361 38.0937 31.7144 38.0948 31.7576 38.0905C31.6426 38.1023 31.527 38.1067 31.4115 38.1035C31.3554 38.1018 31.2994 38.0983 31.2435 38.0931C31.2392 38.0931 31.1392 38.08 31.2061 38.0899C31.183 38.0866 31.1598 38.0828 31.1368 38.0786C31.0535 38.0639 30.9713 38.0435 30.8909 38.0174C30.8566 38.0062 30.8232 37.9927 30.7894 37.9802C30.7522 37.9672 30.8553 38.0119 30.8082 37.9878C30.7941 37.9806 30.7793 37.9747 30.7652 37.9674C30.7237 37.9471 30.6833 37.9245 30.6432 37.9022C30.6077 37.8814 30.5685 37.8679 30.5277 37.8623C30.487 37.8567 30.4456 37.8592 30.4058 37.8696C30.366 37.88 30.3287 37.8982 30.2959 37.923C30.2631 37.9479 30.2356 37.979 30.2148 38.0145C30.1941 38.05 30.1805 38.0892 30.1749 38.13C30.1693 38.1707 30.1718 38.2121 30.1822 38.2519C30.1927 38.2917 30.2108 38.329 30.2357 38.3618C30.2605 38.3946 30.2916 38.4221 30.3271 38.4429L30.3276 38.4425Z" fill="#211715"/>
<path d="M31.3413 35.8825C31.3787 36.0464 31.4134 36.2121 31.4363 36.3783L31.425 36.2951C31.4306 36.3367 31.436 36.3783 31.442 36.4198L31.4309 36.3366C31.4357 36.3682 31.4364 36.4002 31.4329 36.432L31.444 36.3487C31.4419 36.3603 31.4388 36.3717 31.4346 36.3827L31.466 36.3079C31.4624 36.3155 31.458 36.3228 31.453 36.3295L31.5019 36.2663C31.4984 36.2706 31.4945 36.2747 31.4903 36.2783L31.5536 36.2293C31.5376 36.2403 31.5203 36.2494 31.5021 36.2562L31.5769 36.2246C31.5558 36.2328 31.534 36.2389 31.5117 36.2427L31.5949 36.2314C31.5713 36.2344 31.5474 36.2344 31.5238 36.2314L31.607 36.2427C31.5783 36.2383 31.5504 36.2303 31.5217 36.2254C31.4402 36.2058 31.3542 36.2171 31.2805 36.257C31.245 36.2778 31.2139 36.3053 31.189 36.3381C31.1641 36.3708 31.146 36.4082 31.1355 36.448C31.1251 36.4878 31.1226 36.5292 31.1282 36.57C31.1338 36.6107 31.1474 36.65 31.1681 36.6855C31.1882 36.7206 31.2151 36.7514 31.2472 36.7761C31.2794 36.8007 31.3161 36.8187 31.3552 36.829C31.4176 36.8394 31.4761 36.8542 31.5402 36.8591C31.6411 36.8622 31.741 36.8392 31.8303 36.7923C31.8838 36.7664 31.931 36.729 31.9683 36.6826C32.0056 36.6363 32.0322 36.5823 32.0461 36.5245C32.0653 36.4289 32.0642 36.3304 32.043 36.2353L32.0542 36.3186C32.0281 36.116 31.9917 35.9149 31.9451 35.7161C31.9225 35.6363 31.8694 35.5687 31.7973 35.5278C31.7253 35.4868 31.64 35.4759 31.5599 35.4973C31.4808 35.5209 31.4139 35.5741 31.3731 35.6459C31.3324 35.7177 31.321 35.8025 31.3413 35.8825Z" fill="#211715"/>
<path d="M28.4948 34.2063C28.3928 34.5034 28.4308 35.1955 28.9973 35.2724C29.7487 35.292 29.8154 34.4589 29.5752 34.059C29.3784 33.7306 28.7739 33.5776 28.4948 34.2063Z" fill="#211715"/>
<path d="M34.5104 34.3997C34.5931 34.7027 34.5104 35.3913 33.9404 35.4313C33.1894 35.4027 33.1763 34.567 33.4416 34.1828C33.659 33.8683 34.2721 33.7543 34.5104 34.3997Z" fill="#211715"/>
<path d="M63.1804 37.011C63.2431 36.9584 63.3167 36.9202 63.3959 36.8992C63.4751 36.8782 63.5579 36.8749 63.6385 36.8895C63.7229 36.9009 63.8035 36.9322 63.8733 36.9809C63.8551 36.9678 63.9807 37.0941 63.9386 37.04C64.1473 37.3116 64.1443 37.7256 64.1172 38.0491C64.0813 38.386 63.978 38.7124 63.8135 39.0086C63.6539 39.3065 63.3422 39.7523 62.9467 39.6988C62.8668 39.6795 62.7825 39.6914 62.7109 39.732C62.6394 39.7726 62.586 39.8389 62.5616 39.9175C62.5401 39.9975 62.551 40.0828 62.5919 40.155C62.6328 40.2271 62.7005 40.2801 62.7802 40.3028C63.7782 40.4387 64.3633 39.4894 64.6302 38.6619C64.7581 38.2423 64.7876 37.7988 64.7165 37.3659C64.6985 37.1862 64.6437 37.0122 64.5554 36.8546C64.4671 36.6971 64.3472 36.5595 64.2033 36.4504C63.9797 36.3071 63.7153 36.2411 63.4505 36.2624C63.1858 36.2838 62.9353 36.3913 62.7376 36.5686C62.4359 36.8371 62.88 37.2788 63.1804 37.0114V37.011Z" fill="#211715"/>
<circle cx="42.5" cy="42.5" r="40.5" stroke="#00715D" stroke-width="4"/>
</svg>
