<svg width="85" height="85" viewBox="0 0 85 85" fill="none" xmlns="http://www.w3.org/2000/svg">
<g clip-path="url(#clip0_113_332)">
<path d="M22.1077 25.6988C22.3219 25.6971 22.536 25.72 22.7537 25.7643C24.3474 26.0882 25.4463 27.6005 25.2552 29.2156L24.4289 36.103L24.658 36.0453C26.3228 35.5983 28.0589 36.5925 28.5042 38.257L29.8676 43.353L33.4433 46.9582C34.6953 48.2239 35.5023 49.8667 35.7458 51.6301L36.3204 55.8323L37.1204 55.618C37.2449 55.5828 37.3752 55.5729 37.5036 55.5891C37.8879 55.6433 38.2021 55.9234 38.2998 56.299L40.0464 62.7993C40.1849 63.312 39.8814 63.8396 39.3686 63.9782C39.3679 63.9782 39.3673 63.9784 39.3666 63.9787L24.5154 67.9668C24.0027 68.105 23.4748 67.8018 23.3365 67.2891C23.3364 67.2883 23.3363 67.2879 23.336 67.2874L21.6045 60.7871C21.4667 60.2741 21.7708 59.747 22.2838 59.6091C22.2852 59.6086 22.2866 59.6084 22.2881 59.6079L23.9069 59.1717L18.8363 49.7423C17.2369 46.7585 16.6642 43.3387 17.1911 39.9934L19.0203 28.3518C19.2624 26.8151 20.6088 25.7155 22.1077 25.7043V25.6988Z" fill="#484666"/>
<path d="M22.3594 27.6366H22.3444C21.6581 27.504 21.0345 27.9491 20.9246 28.6467L19.0917 40.2844C18.6299 43.2162 19.14 46.2133 20.5415 48.8279L25.8112 58.6558L34.45 56.3311L33.8415 51.8813C33.6549 50.5292 33.0286 49.2729 32.0687 48.3025L28.1512 44.3294L26.66 38.7526C26.4833 38.092 25.8294 37.723 25.1688 37.9002L24.7294 38.0135C24.0675 38.1924 23.6997 38.8426 23.8768 39.5044L26.0477 47.6235L24.1885 48.1193L22.0176 40.0002C21.7929 39.1603 21.9347 38.3053 22.3444 37.6043C22.332 37.4991 22.337 37.3925 22.3594 37.289L23.3359 28.9859C23.4118 28.3451 22.9988 27.7805 22.3707 27.6525C22.3668 27.6462 22.3631 27.6399 22.3594 27.6333V27.6366Z" fill="#FFD3B3"/>
<path d="M36.696 57.7283L23.7078 61.2062L24.9434 65.8478L37.9317 62.3702L36.696 57.7283Z" fill="#36D7B7"/>
<path d="M36.6967 57.7273L36.0394 57.9043L37.23 62.3698L24.8993 65.6711L24.9444 65.8481L37.9324 62.3706L36.6967 57.7273Z" fill="#37B89E"/>
<path d="M22.3453 27.6371C22.1093 27.5908 21.8907 27.6371 21.688 27.712C22.228 27.8947 22.5799 28.3984 22.5105 28.9853L21.534 37.2889C21.5116 37.3924 21.5066 37.4992 21.519 37.6044C21.1094 38.3056 20.9675 39.1602 21.1922 40.0005L23.3632 48.1165L24.1331 47.9099L22.0185 40.0004C21.7938 39.1602 21.9357 38.3055 22.3453 37.6043C22.3329 37.4991 22.3379 37.3923 22.3603 37.2888L23.3368 28.9851C23.4127 28.3443 22.9997 27.7795 22.3716 27.6518C22.3678 27.6454 22.364 27.6391 22.3603 27.6325L22.3453 27.6371ZM25.6543 37.8636C25.4974 37.8444 25.335 37.8636 25.1698 37.9021L25.0422 37.9347C25.4139 38.0558 25.7236 38.3379 25.8347 38.7535L27.3258 44.3305L31.2432 48.3003C32.2032 49.2707 32.8294 50.5272 33.016 51.8794L33.6245 56.3298L25.7071 58.4592L25.8123 58.6546L34.4508 56.3298L33.8423 51.8794C33.6557 50.5272 33.0295 49.2707 32.0695 48.3003L28.1521 44.3305L26.661 38.7535C26.5286 38.2582 26.1253 37.9235 25.6544 37.8634L25.6543 37.8636Z" fill="#D8B59B"/>
<path d="M61.8924 25.6988C61.6782 25.6971 61.4641 25.72 61.2464 25.7643C59.6527 26.0882 58.5538 27.6005 58.7449 29.2156L59.5712 36.103L59.3421 36.0453C57.6773 35.5983 55.9413 36.5925 55.496 38.257L54.1325 43.353L50.5568 46.9582C49.3048 48.2239 48.4978 49.8667 48.2543 51.6301L47.6797 55.8323L46.8797 55.618C46.7552 55.5828 46.6249 55.5729 46.4966 55.5891C46.1122 55.6433 45.798 55.9234 45.7003 56.299L43.9537 62.7993C43.8153 63.312 44.1187 63.8396 44.6315 63.9782C44.6322 63.9782 44.6328 63.9784 44.6335 63.9787L59.4847 67.9668C59.9974 68.105 60.5253 67.8018 60.6636 67.2891C60.6637 67.2883 60.6639 67.2879 60.6641 67.2874L62.3957 60.7871C62.5334 60.2741 62.2293 59.747 61.7163 59.6091C61.7149 59.6086 61.7135 59.6084 61.712 59.6079L60.0932 59.1717L65.1639 49.7423C66.7632 46.7585 67.3359 43.3387 66.809 39.9934L64.9798 28.3518C64.7377 26.8151 63.3913 25.7155 61.8924 25.7043V25.6988Z" fill="#484666"/>
<path d="M61.6408 27.6366H61.6558C62.3421 27.504 62.9656 27.9491 63.0756 28.6467L64.9085 40.2844C65.3702 43.2162 64.8602 46.2133 63.4586 48.8279L58.1889 58.6558L49.5501 56.3311L50.1586 51.8813C50.3453 50.5292 50.9716 49.2729 51.9314 48.3025L55.849 44.3294L57.3402 38.7526C57.5168 38.092 58.1708 37.723 58.8314 37.9002L59.2708 38.0135C59.9326 38.1924 60.3004 38.8426 60.1234 39.5044L57.9524 47.6235L59.8116 48.1193L61.9826 40.0002C62.2072 39.1603 62.0654 38.3053 61.6558 37.6043C61.6682 37.4991 61.6631 37.3925 61.6408 37.289L60.6642 28.9859C60.5884 28.3451 61.0014 27.7805 61.6295 27.6525C61.6333 27.6462 61.6372 27.6399 61.6408 27.6333V27.6366Z" fill="#FFD3B3"/>
<path d="M47.3041 57.7283L60.2924 61.2063L59.0567 65.8479L46.0685 62.3703L47.3041 57.7283Z" fill="#36D7B7"/>
<path d="M47.3034 57.7273L47.2357 57.979L59.2847 61.2051L58.1166 65.5955L59.0556 65.8471L60.2913 61.2051L47.3034 57.7273Z" fill="#37B89E"/>
<path d="M61.6397 27.6371C61.636 27.6437 61.6322 27.65 61.6284 27.6563C61.5672 27.6756 61.52 27.7044 61.4631 27.7238C61.8393 27.8775 62.1323 28.2021 62.203 28.6515L64.0359 40.2901C64.4977 43.2219 63.9876 46.216 62.5861 48.8304L57.4254 58.4524L58.1879 58.6592L63.4574 48.8308C64.859 46.2162 65.3689 43.222 64.9073 40.2905L63.0745 28.6518C62.9645 27.9541 62.3411 27.5086 61.6547 27.6415L61.6397 27.6371ZM58.3458 37.8636C58.2631 37.8829 58.1903 37.9155 58.1129 37.9425L58.3983 38.0136C59.0602 38.1925 59.428 38.8427 59.2509 39.5047L57.08 47.6207L58.9392 48.1165L58.9955 47.8986L57.9513 47.6206L60.1223 39.5046C60.2993 38.8426 59.9316 38.1916 59.2697 38.0135L58.8303 37.9002C58.6651 37.856 58.5028 37.8425 58.3458 37.8617V37.8636Z" fill="#D8B59B"/>
<path d="M36.714 18.0004C33.2776 18.0004 30.4678 20.7825 30.4678 24.2027C30.4678 24.2027 30.4678 24.2027 30.4678 24.222C30.4697 26.0475 31.3803 27.5814 32.4978 28.7919C35.4342 31.9737 41.2709 38.8267 41.2709 38.8267C41.65 39.2678 42.3308 39.2744 42.7189 38.846C42.7189 38.846 48.9551 31.8067 51.9605 28.3285C52.9418 27.193 53.5339 25.7616 53.5363 24.2265C53.5363 24.2265 53.5363 24.2265 53.5363 24.2073C53.5363 20.7871 50.7265 18.005 47.29 18.005C44.171 18.005 42.5393 19.9484 42.025 20.5582C41.3142 19.9024 38.9727 18.0562 36.7141 17.9999L36.714 18.0004Z" fill="#484666"/>
<path d="M36.714 19.9306C39.0004 19.9306 41.2567 22.4571 41.2567 22.4571C41.642 22.928 42.362 22.928 42.7473 22.4571C42.7473 22.4571 45.0036 19.9306 47.29 19.9306C49.6941 19.9306 51.6196 21.8318 51.6196 24.2027C51.6181 25.241 51.2055 26.2514 50.4982 27.0697C47.7496 30.2508 42.8579 35.778 42.009 36.7353C41.1825 35.7656 36.6774 30.4719 33.9173 27.4812C32.9918 26.4784 32.3854 25.3777 32.3842 24.2026C32.3842 21.8316 34.3098 19.9305 36.7139 19.9305L36.714 19.9306Z" fill="#D87070"/>
<path d="M36.7155 19.9305C36.5293 19.9305 36.3507 19.9612 36.1709 19.9824C38.3056 20.2556 40.2949 22.4576 40.2949 22.4576C40.6054 22.8369 41.1245 22.8923 41.5194 22.6602C41.4252 22.6043 41.3307 22.5487 41.2565 22.4576C41.2565 22.4576 39.002 19.9299 36.7156 19.9299L36.7155 19.9305ZM47.2884 19.9305C47.148 19.9305 47.0111 19.965 46.8715 19.9824C49.013 20.2462 50.6574 22.0165 50.6574 24.2038C50.6559 25.2421 50.2454 26.2507 49.5381 27.0693C46.9469 30.0682 42.752 34.8095 41.5342 36.1842C41.6286 36.2958 41.9485 36.6674 42.0075 36.7364C42.8564 35.7788 47.751 30.2504 50.4996 27.0693C51.2068 26.2507 51.6172 25.2421 51.6189 24.2038C51.6189 21.8328 49.6925 19.9297 47.2884 19.9297V19.9305Z" fill="#BD5858"/>
</g>
<circle cx="42.5" cy="42.5" r="40.5" stroke="#00715D" stroke-width="4"/>
<defs>
<clipPath id="clip0_113_332">
<rect width="50" height="50" fill="white" transform="translate(17 18)"/>
</clipPath>
</defs>
</svg>
