<svg width="85" height="85" viewBox="0 0 85 85" fill="none" xmlns="http://www.w3.org/2000/svg">
<circle cx="42.5" cy="42.5" r="40.5" stroke="#00715D" stroke-width="4"/>
<path d="M63.0938 56.2812H20.9062V59.4062H63.0938V56.2812Z" fill="#716558"/>
<path d="M61.5312 26.5938H22.4688V56.2812H61.5312V26.5938Z" fill="#6F9B45"/>
<path d="M37.3125 39.875H38.875V41.4375H37.3125V43H35.75V41.4375H34.1875V39.875H35.75V38.3125H37.3125V39.875ZM27.9375 38.3125H29.5V44.5625H31.0625V36.75H27.9375V38.3125ZM42 38.3125H43.5625V44.5625H45.125V36.75H42V38.3125ZM48.25 38.3125V39.875H52.9375V38.3125H48.25ZM48.25 43H52.9375V41.4375H48.25V43ZM24.8125 55.5H31.0625V53.9375H24.8125V55.5Z" fill="#FFFAEE"/>
<path d="M55.2812 56.2812C57.0071 56.2812 58.4062 54.8821 58.4062 53.1562C58.4062 51.4304 57.0071 50.0312 55.2812 50.0312C53.5554 50.0312 52.1562 51.4304 52.1562 53.1562C52.1562 54.8821 53.5554 56.2812 55.2812 56.2812Z" fill="#CC4121"/>
<path d="M62.3125 55.5V25.8125H21.6875V55.5H20.125V60.1875H63.875V55.5H62.3125ZM23.25 27.375H60.75V55.5H58.3891C58.8828 54.8453 59.1875 54.0391 59.1875 53.1562C59.1875 51.2672 57.8453 49.6906 56.0625 49.3281V47.6875H54.5V49.3281C52.7172 49.6906 51.375 51.2656 51.375 53.1562C51.375 54.0391 51.6797 54.8453 52.1734 55.5H23.25V27.375ZM52.9375 53.1562C52.9375 51.8641 53.9891 50.8125 55.2812 50.8125C56.5734 50.8125 57.625 51.8641 57.625 53.1562C57.625 54.4484 56.5734 55.5 55.2812 55.5C53.9891 55.5 52.9375 54.4484 52.9375 53.1562ZM62.3125 58.625H21.6875V57.0625H62.3125V58.625Z" fill="#231F20"/>
</svg>
