<svg width="36" height="36" viewBox="0 0 36 36" fill="none" xmlns="http://www.w3.org/2000/svg">
<circle cx="18" cy="18" r="18" fill="#EFEFEF"/>
<path d="M26.9852 17.4683C26.6792 12.249 21.9369 8.22651 16.4746 9.12639C12.7131 9.74731 9.69845 12.7979 9.11352 16.5594C8.77157 18.7371 9.22153 20.7978 10.2024 22.4986L9.40149 25.4772C9.22152 26.1521 9.84242 26.764 10.5083 26.5751L13.442 25.7652C14.7738 26.5481 16.3306 26.998 17.9954 26.998C23.0707 26.998 27.2822 22.5256 26.9852 17.4683ZM22.3958 21.3467C22.3148 21.5087 22.2158 21.6617 22.0898 21.8057C21.8649 22.0487 21.6219 22.2286 21.3519 22.3366C21.082 22.4536 20.785 22.5076 20.47 22.5076C20.0111 22.5076 19.5162 22.3997 19.0032 22.1747C18.4813 21.9498 17.9684 21.6527 17.4554 21.2838C16.9335 20.9058 16.4476 20.4829 15.9796 20.0239C15.5117 19.556 15.0977 19.061 14.7198 18.5481C14.3508 18.0352 14.0539 17.5222 13.8379 17.0093C13.6219 16.4964 13.514 16.0015 13.514 15.5336C13.514 15.2276 13.5679 14.9306 13.6759 14.6607C13.7839 14.3817 13.9549 14.1297 14.1979 13.9048C14.4858 13.6168 14.8008 13.4818 15.1337 13.4818C15.2597 13.4818 15.3857 13.5088 15.5027 13.5628C15.6197 13.6168 15.7277 13.6978 15.8087 13.8148L16.8525 15.2906C16.9335 15.4075 16.9965 15.5065 17.0325 15.6055C17.0775 15.7045 17.0955 15.7945 17.0955 15.8845C17.0955 15.9925 17.0595 16.1005 16.9965 16.2084C16.9335 16.3164 16.8525 16.4244 16.7445 16.5324L16.4026 16.8923C16.3486 16.9463 16.3306 17.0003 16.3306 17.0723C16.3306 17.1083 16.3396 17.1443 16.3486 17.1803C16.3666 17.2163 16.3756 17.2433 16.3846 17.2703C16.4656 17.4233 16.6096 17.6122 16.8075 17.8462C17.0145 18.0802 17.2305 18.3231 17.4644 18.5571C17.7074 18.8001 17.9414 19.0161 18.1843 19.223C18.4183 19.421 18.6163 19.556 18.7693 19.637C18.7963 19.646 18.8233 19.664 18.8503 19.673C18.8863 19.691 18.9222 19.691 18.9672 19.691C19.0482 19.691 19.1022 19.664 19.1562 19.61L19.4982 19.268C19.6152 19.151 19.7231 19.07 19.8221 19.0161C19.9301 18.9531 20.0291 18.9171 20.1461 18.9171C20.2361 18.9171 20.3261 18.9351 20.4251 18.9801C20.524 19.0251 20.632 19.079 20.74 19.16L22.2338 20.2219C22.3508 20.3029 22.4318 20.4019 22.4858 20.5099C22.5308 20.6268 22.5578 20.7348 22.5578 20.8608C22.5038 21.0138 22.4678 21.1848 22.3958 21.3467Z" fill="#525252"/>
</svg>
